M48
; DRILL file {KiCad 5.1.10-88a1d61d58~88~ubuntu20.04.1} date Fri Jun 25 21:16:11 2021
; FORMAT={-:-/ absolute / inch / decimal}
; #@! TF.CreationDate,2021-06-25T21:16:11-07:00
; #@! TF.GenerationSoftware,Kicad,Pcbnew,5.1.10-88a1d61d58~88~ubuntu20.04.1
; #@! TF.FileFunction,Plated,1,2,PTH
FMAT,2
INCH
T1C0.0157
T2C0.0236
T3C0.0394
%
G90
G05
T1
X2.9864Y-4.0841
X3.052Y-4.3912
X3.0557Y-4.0196
X3.0689Y-4.5588
X3.0797Y-4.21
X3.0922Y-4.4054
X3.1215Y-4.2082
X3.1336Y-4.4314
X3.1592Y-4.296
X3.1833Y-4.4295
X3.2545Y-4.2285
X3.3427Y-4.0122
X3.407Y-4.2413
X3.4289Y-3.977
X3.4714Y-4.2098
X3.5594Y-4.0278
X3.831Y-4.125
T2
X3.4048Y-4.3987
X3.5478Y-4.375
T3
X2.715Y-3.94
X2.715Y-4.04
X2.715Y-4.2554
X2.715Y-4.3554
X2.715Y-4.4554
X2.815Y-4.2554
X2.815Y-4.3554
X2.815Y-4.4554
X3.15Y-3.8
X3.17Y-4.61
X3.25Y-3.8
X3.27Y-4.61
X3.35Y-3.8
X3.37Y-4.61
X3.45Y-3.8
X3.47Y-4.61
X3.57Y-4.61
X3.65Y-3.8
X3.67Y-4.61
X3.75Y-3.8
X3.77Y-4.61
X3.85Y-3.8
X3.87Y-4.61
X3.95Y-3.8
X3.97Y-4.61
T0
M30
