%TF.GenerationSoftware,KiCad,Pcbnew,5.1.10-88a1d61d58~88~ubuntu20.04.1*%
%TF.CreationDate,2021-06-25T21:15:04-07:00*%
%TF.ProjectId,BACEE,42414345-452e-46b6-9963-61645f706362,1*%
%TF.SameCoordinates,Original*%
%TF.FileFunction,Paste,Bot*%
%TF.FilePolarity,Positive*%
%FSLAX46Y46*%
G04 Gerber Fmt 4.6, Leading zero omitted, Abs format (unit mm)*
G04 Created by KiCad (PCBNEW 5.1.10-88a1d61d58~88~ubuntu20.04.1) date 2021-06-25 21:15:04*
%MOMM*%
%LPD*%
G01*
G04 APERTURE LIST*
%ADD10C,0.150000*%
G04 APERTURE END LIST*
%TO.C,J4*%
D10*
X69370685Y-115739828D02*
X69370685Y-115139828D01*
X69627828Y-115711257D02*
X69713542Y-115739828D01*
X69856400Y-115739828D01*
X69913542Y-115711257D01*
X69942114Y-115682685D01*
X69970685Y-115625542D01*
X69970685Y-115568400D01*
X69942114Y-115511257D01*
X69913542Y-115482685D01*
X69856400Y-115454114D01*
X69742114Y-115425542D01*
X69684971Y-115396971D01*
X69656400Y-115368400D01*
X69627828Y-115311257D01*
X69627828Y-115254114D01*
X69656400Y-115196971D01*
X69684971Y-115168400D01*
X69742114Y-115139828D01*
X69884971Y-115139828D01*
X69970685Y-115168400D01*
X70570685Y-115682685D02*
X70542114Y-115711257D01*
X70456400Y-115739828D01*
X70399257Y-115739828D01*
X70313542Y-115711257D01*
X70256400Y-115654114D01*
X70227828Y-115596971D01*
X70199257Y-115482685D01*
X70199257Y-115396971D01*
X70227828Y-115282685D01*
X70256400Y-115225542D01*
X70313542Y-115168400D01*
X70399257Y-115139828D01*
X70456400Y-115139828D01*
X70542114Y-115168400D01*
X70570685Y-115196971D01*
X70827828Y-115739828D02*
X70827828Y-115139828D01*
X71056400Y-115139828D01*
X71113542Y-115168400D01*
X71142114Y-115196971D01*
X71170685Y-115254114D01*
X71170685Y-115339828D01*
X71142114Y-115396971D01*
X71113542Y-115425542D01*
X71056400Y-115454114D01*
X70827828Y-115454114D01*
%TD*%
M02*
