%TF.GenerationSoftware,KiCad,Pcbnew,5.1.10-88a1d61d58~88~ubuntu20.04.1*%
%TF.CreationDate,2021-06-25T21:15:04-07:00*%
%TF.ProjectId,BACEE,42414345-452e-46b6-9963-61645f706362,1*%
%TF.SameCoordinates,Original*%
%TF.FileFunction,Copper,L2,Bot*%
%TF.FilePolarity,Positive*%
%FSLAX46Y46*%
G04 Gerber Fmt 4.6, Leading zero omitted, Abs format (unit mm)*
G04 Created by KiCad (PCBNEW 5.1.10-88a1d61d58~88~ubuntu20.04.1) date 2021-06-25 21:15:04*
%MOMM*%
%LPD*%
G01*
G04 APERTURE LIST*
%TA.AperFunction,ComponentPad*%
%ADD10R,1.700000X1.700000*%
%TD*%
%TA.AperFunction,ComponentPad*%
%ADD11O,1.700000X1.700000*%
%TD*%
%TA.AperFunction,ViaPad*%
%ADD12C,1.000000*%
%TD*%
%TA.AperFunction,ViaPad*%
%ADD13C,0.800000*%
%TD*%
%TA.AperFunction,Conductor*%
%ADD14C,0.300000*%
%TD*%
%TA.AperFunction,Conductor*%
%ADD15C,0.250000*%
%TD*%
%TA.AperFunction,Conductor*%
%ADD16C,0.150000*%
%TD*%
%TA.AperFunction,Conductor*%
%ADD17C,0.100000*%
%TD*%
G04 APERTURE END LIST*
D10*
%TO.P,BT1-3.3V,1*%
%TO.N,/Vcc*%
X68961000Y-100076000D03*
D11*
%TO.P,BT1-3.3V,2*%
%TO.N,GNDPWR*%
X68961000Y-102616000D03*
%TD*%
D10*
%TO.P,J1,1*%
%TO.N,/Connectors/GND*%
X80010000Y-96520000D03*
D11*
%TO.P,J1,2*%
%TO.N,/Vcc*%
X82550000Y-96520000D03*
%TO.P,J1,3*%
%TO.N,/RX*%
X85090000Y-96520000D03*
%TO.P,J1,4*%
%TO.N,/TX*%
X87630000Y-96520000D03*
%TD*%
D10*
%TO.P,J2,1*%
%TO.N,/D2*%
X80518000Y-117094000D03*
D11*
%TO.P,J2,2*%
%TO.N,/D3*%
X83058000Y-117094000D03*
%TO.P,J2,3*%
%TO.N,/D4*%
X85598000Y-117094000D03*
%TO.P,J2,4*%
%TO.N,/D5*%
X88138000Y-117094000D03*
%TO.P,J2,5*%
%TO.N,/D6*%
X90678000Y-117094000D03*
%TO.P,J2,6*%
%TO.N,/D7*%
X93218000Y-117094000D03*
%TO.P,J2,7*%
%TO.N,/D8*%
X95758000Y-117094000D03*
%TO.P,J2,8*%
%TO.N,/Connectors/GND*%
X98298000Y-117094000D03*
%TO.P,J2,9*%
%TO.N,/Vcc*%
X100838000Y-117094000D03*
%TD*%
%TO.P,J3,4*%
%TO.N,/SCL*%
X100330000Y-96520000D03*
%TO.P,J3,3*%
%TO.N,/SDA*%
X97790000Y-96520000D03*
%TO.P,J3,2*%
%TO.N,/Vcc*%
X95250000Y-96520000D03*
D10*
%TO.P,J3,1*%
%TO.N,/Connectors/GND*%
X92710000Y-96520000D03*
%TD*%
%TO.P,J4,1*%
%TO.N,/MISO*%
X71501000Y-108087000D03*
D11*
%TO.P,J4,2*%
%TO.N,/Vcc*%
X68961000Y-108087000D03*
%TO.P,J4,3*%
%TO.N,/SCL*%
X71501000Y-110627000D03*
%TO.P,J4,4*%
%TO.N,/MOSI*%
X68961000Y-110627000D03*
%TO.P,J4,5*%
%TO.N,/RESET*%
X71501000Y-113167000D03*
%TO.P,J4,6*%
%TO.N,/Connectors/GND*%
X68961000Y-113167000D03*
%TD*%
D12*
%TO.N,/Vcc*%
X86482900Y-111728000D03*
X90114100Y-111125000D03*
D13*
%TO.N,Net-(C1-Pad2)*%
X77521400Y-111537600D03*
X77615800Y-102098100D03*
%TO.N,Net-(C2-Pad2)*%
X78541500Y-111897800D03*
X84905400Y-101911100D03*
%TO.N,/RX*%
X79285600Y-106888800D03*
%TO.N,/TX*%
X78223400Y-106932800D03*
%TO.N,/D3*%
X77948800Y-115792700D03*
%TO.N,/D4*%
X80244300Y-109118600D03*
%TO.N,/D6*%
X79594200Y-112558600D03*
%TO.N,/SCL*%
X75853800Y-103737300D03*
%TO.N,/SDA*%
X82663500Y-107403200D03*
X97306400Y-104775000D03*
%TO.N,/MOSI*%
X80855700Y-112510500D03*
%TO.N,/ADDS1*%
X87092800Y-101016700D03*
X86537900Y-107728000D03*
%TO.N,/ADDS2*%
X90408700Y-102305800D03*
X88173200Y-106928000D03*
%TD*%
D14*
%TO.N,/Vcc*%
X100838000Y-117094000D02*
X99637700Y-117094000D01*
X90056600Y-111636600D02*
X86574300Y-111636600D01*
X86574300Y-111636600D02*
X86482900Y-111728000D01*
X90056600Y-111636600D02*
X90056600Y-111182500D01*
X90056600Y-111182500D02*
X90114100Y-111125000D01*
X99637700Y-117094000D02*
X99637700Y-117469100D01*
X99637700Y-117469100D02*
X98812400Y-118294400D01*
X98812400Y-118294400D02*
X92712700Y-118294400D01*
X92712700Y-118294400D02*
X91948000Y-117529700D01*
X91948000Y-117529700D02*
X91948000Y-113528000D01*
X91948000Y-113528000D02*
X90056600Y-111636600D01*
X68961000Y-100076000D02*
X68961000Y-101276300D01*
X68961000Y-108087000D02*
X68961000Y-106886700D01*
X68961000Y-106886700D02*
X67760700Y-105686400D01*
X67760700Y-105686400D02*
X67760700Y-102101400D01*
X67760700Y-102101400D02*
X68585800Y-101276300D01*
X68585800Y-101276300D02*
X68961000Y-101276300D01*
D15*
%TO.N,Net-(C1-Pad2)*%
X77521400Y-111537600D02*
X77422800Y-111439000D01*
X77422800Y-111439000D02*
X77422800Y-102291100D01*
X77422800Y-102291100D02*
X77615800Y-102098100D01*
%TO.N,Net-(C2-Pad2)*%
X84905400Y-101911100D02*
X84905400Y-102941400D01*
X84905400Y-102941400D02*
X78541500Y-109305300D01*
X78541500Y-109305300D02*
X78541500Y-111897800D01*
%TO.N,/Connectors/GND*%
X92710000Y-97695300D02*
X92710000Y-110330700D01*
X92710000Y-110330700D02*
X98298000Y-115918700D01*
X92710000Y-96520000D02*
X92710000Y-97695300D01*
X98298000Y-117094000D02*
X98298000Y-115918700D01*
X80010000Y-97695300D02*
X79684600Y-97695300D01*
X79684600Y-97695300D02*
X70136300Y-107243600D01*
X70136300Y-107243600D02*
X70136300Y-111183800D01*
X70136300Y-111183800D02*
X69328400Y-111991700D01*
X69328400Y-111991700D02*
X68961000Y-111991700D01*
X68961000Y-113167000D02*
X68961000Y-111991700D01*
X80010000Y-96520000D02*
X80010000Y-97695300D01*
%TO.N,/RX*%
X85090000Y-96520000D02*
X85090000Y-97695300D01*
X85090000Y-97695300D02*
X79285600Y-103499700D01*
X79285600Y-103499700D02*
X79285600Y-106888800D01*
%TO.N,/TX*%
X87630000Y-97695300D02*
X80398000Y-104927300D01*
X80398000Y-104927300D02*
X80398000Y-106802200D01*
X80398000Y-106802200D02*
X79561500Y-107638700D01*
X79561500Y-107638700D02*
X78929300Y-107638700D01*
X78929300Y-107638700D02*
X78223400Y-106932800D01*
X87630000Y-96520000D02*
X87630000Y-97695300D01*
%TO.N,/D3*%
X81882700Y-117094000D02*
X81882700Y-116286000D01*
X81882700Y-116286000D02*
X81389400Y-115792700D01*
X81389400Y-115792700D02*
X77948800Y-115792700D01*
X83058000Y-117094000D02*
X81882700Y-117094000D01*
%TO.N,/D4*%
X85598000Y-117094000D02*
X85598000Y-114472300D01*
X85598000Y-114472300D02*
X80244300Y-109118600D01*
%TO.N,/D6*%
X89502700Y-117094000D02*
X89502700Y-117461300D01*
X89502700Y-117461300D02*
X88694600Y-118269400D01*
X88694600Y-118269400D02*
X85109200Y-118269400D01*
X85109200Y-118269400D02*
X84328000Y-117488200D01*
X84328000Y-117488200D02*
X84328000Y-114934900D01*
X84328000Y-114934900D02*
X81132400Y-111739300D01*
X81132400Y-111739300D02*
X80413500Y-111739300D01*
X80413500Y-111739300D02*
X79594200Y-112558600D01*
X90678000Y-117094000D02*
X89502700Y-117094000D01*
%TO.N,/SCL*%
X100330000Y-96520000D02*
X99154700Y-96520000D01*
X99154700Y-96520000D02*
X99154700Y-96152700D01*
X99154700Y-96152700D02*
X97863200Y-94861200D01*
X97863200Y-94861200D02*
X85040700Y-94861200D01*
X85040700Y-94861200D02*
X83914600Y-95987300D01*
X83914600Y-95987300D02*
X83914600Y-96825200D01*
X83914600Y-96825200D02*
X79538700Y-101201100D01*
X79538700Y-101201100D02*
X77452800Y-101201100D01*
X77452800Y-101201100D02*
X75853800Y-102800100D01*
X75853800Y-102800100D02*
X75853800Y-103737300D01*
X71501000Y-110627000D02*
X71501000Y-109451700D01*
X71501000Y-109451700D02*
X72309000Y-109451700D01*
X72309000Y-109451700D02*
X75853800Y-105906900D01*
X75853800Y-105906900D02*
X75853800Y-103737300D01*
%TO.N,/SDA*%
X97202400Y-96520000D02*
X96009900Y-95327500D01*
X96009900Y-95327500D02*
X91736500Y-95327500D01*
X91736500Y-95327500D02*
X86087500Y-100976500D01*
X86087500Y-100976500D02*
X86087500Y-103979200D01*
X86087500Y-103979200D02*
X82663500Y-107403200D01*
X97306400Y-104775000D02*
X97202400Y-104671000D01*
X97202400Y-104671000D02*
X97202400Y-96520000D01*
X97790000Y-96520000D02*
X97202400Y-96520000D01*
%TO.N,/MOSI*%
X68961000Y-110627000D02*
X67733700Y-111854300D01*
X67733700Y-111854300D02*
X67733700Y-113668400D01*
X67733700Y-113668400D02*
X68434700Y-114369400D01*
X68434700Y-114369400D02*
X78996800Y-114369400D01*
X78996800Y-114369400D02*
X80855700Y-112510500D01*
%TO.N,/ADDS1*%
X87092800Y-101016700D02*
X86537900Y-101571600D01*
X86537900Y-101571600D02*
X86537900Y-107728000D01*
%TO.N,/ADDS2*%
X90408700Y-102305800D02*
X90408700Y-104692500D01*
X90408700Y-104692500D02*
X88173200Y-106928000D01*
%TD*%
D16*
%TO.N,GNDPWR*%
X67941507Y-94728984D02*
X67685603Y-94899974D01*
X67467974Y-95117603D01*
X67296984Y-95373507D01*
X67179204Y-95657853D01*
X67119160Y-95959713D01*
X67119160Y-96267487D01*
X67179204Y-96569347D01*
X67296984Y-96853693D01*
X67467974Y-97109597D01*
X67685603Y-97327226D01*
X67941507Y-97498216D01*
X68225853Y-97615996D01*
X68527713Y-97676040D01*
X68835487Y-97676040D01*
X69137347Y-97615996D01*
X69421693Y-97498216D01*
X69677597Y-97327226D01*
X69895226Y-97109597D01*
X70066216Y-96853693D01*
X70183996Y-96569347D01*
X70244040Y-96267487D01*
X70244040Y-95959713D01*
X70183996Y-95657853D01*
X70066216Y-95373507D01*
X69895226Y-95117603D01*
X69677597Y-94899974D01*
X69421693Y-94728984D01*
X69257565Y-94661000D01*
X84675214Y-94661000D01*
X83645652Y-95690563D01*
X83630389Y-95703089D01*
X83580403Y-95763998D01*
X83543260Y-95833487D01*
X83520388Y-95908886D01*
X83520388Y-95908887D01*
X83517087Y-95942402D01*
X83423844Y-95802855D01*
X83267145Y-95646156D01*
X83082887Y-95523038D01*
X82878150Y-95438233D01*
X82660803Y-95395000D01*
X82439197Y-95395000D01*
X82221850Y-95438233D01*
X82017113Y-95523038D01*
X81832855Y-95646156D01*
X81676156Y-95802855D01*
X81553038Y-95987113D01*
X81468233Y-96191850D01*
X81425000Y-96409197D01*
X81425000Y-96630803D01*
X81468233Y-96848150D01*
X81553038Y-97052887D01*
X81676156Y-97237145D01*
X81832855Y-97393844D01*
X82017113Y-97516962D01*
X82221850Y-97601767D01*
X82439197Y-97645000D01*
X82529114Y-97645000D01*
X79373015Y-100801100D01*
X77472435Y-100801100D01*
X77452799Y-100799166D01*
X77433163Y-100801100D01*
X77433153Y-100801100D01*
X77374386Y-100806888D01*
X77298986Y-100829760D01*
X77229497Y-100866903D01*
X77168589Y-100916889D01*
X77156065Y-100932150D01*
X75584852Y-102503363D01*
X75569589Y-102515889D01*
X75519603Y-102576798D01*
X75482460Y-102646287D01*
X75467296Y-102696277D01*
X75459588Y-102721687D01*
X75451865Y-102800100D01*
X75453800Y-102819747D01*
X75453800Y-103192756D01*
X75423513Y-103212993D01*
X75329493Y-103307013D01*
X75255623Y-103417568D01*
X75204740Y-103540410D01*
X75178800Y-103670818D01*
X75178800Y-103803782D01*
X75204740Y-103934190D01*
X75255623Y-104057032D01*
X75329493Y-104167587D01*
X75423513Y-104261607D01*
X75453801Y-104281844D01*
X75453800Y-105741214D01*
X72627330Y-108567685D01*
X72627330Y-107237000D01*
X72622020Y-107183091D01*
X72606296Y-107131253D01*
X72580760Y-107083479D01*
X72546395Y-107041605D01*
X72504521Y-107007240D01*
X72456747Y-106981704D01*
X72404909Y-106965980D01*
X72351000Y-106960670D01*
X70984915Y-106960670D01*
X79850285Y-98095300D01*
X79990354Y-98095300D01*
X80010000Y-98097235D01*
X80088414Y-98089512D01*
X80163814Y-98066640D01*
X80233303Y-98029497D01*
X80294211Y-97979511D01*
X80344197Y-97918603D01*
X80381340Y-97849114D01*
X80404212Y-97773714D01*
X80410000Y-97714947D01*
X80411935Y-97695300D01*
X80410000Y-97675653D01*
X80410000Y-97646330D01*
X80860000Y-97646330D01*
X80913909Y-97641020D01*
X80965747Y-97625296D01*
X81013521Y-97599760D01*
X81055395Y-97565395D01*
X81089760Y-97523521D01*
X81115296Y-97475747D01*
X81131020Y-97423909D01*
X81136330Y-97370000D01*
X81136330Y-95670000D01*
X81131020Y-95616091D01*
X81115296Y-95564253D01*
X81089760Y-95516479D01*
X81055395Y-95474605D01*
X81013521Y-95440240D01*
X80965747Y-95414704D01*
X80913909Y-95398980D01*
X80860000Y-95393670D01*
X79160000Y-95393670D01*
X79106091Y-95398980D01*
X79054253Y-95414704D01*
X79006479Y-95440240D01*
X78964605Y-95474605D01*
X78930240Y-95516479D01*
X78904704Y-95564253D01*
X78888980Y-95616091D01*
X78883670Y-95670000D01*
X78883670Y-97370000D01*
X78888980Y-97423909D01*
X78904704Y-97475747D01*
X78930240Y-97523521D01*
X78964605Y-97565395D01*
X79006479Y-97599760D01*
X79054253Y-97625296D01*
X79106091Y-97641020D01*
X79160000Y-97646330D01*
X79167885Y-97646330D01*
X69867352Y-106946863D01*
X69852089Y-106959389D01*
X69802103Y-107020298D01*
X69764960Y-107089787D01*
X69750821Y-107136397D01*
X69742088Y-107165187D01*
X69734365Y-107243600D01*
X69736300Y-107263247D01*
X69736300Y-107271311D01*
X69678145Y-107213156D01*
X69493887Y-107090038D01*
X69386000Y-107045350D01*
X69386000Y-106907574D01*
X69388056Y-106886700D01*
X69379850Y-106803386D01*
X69355548Y-106723273D01*
X69348185Y-106709498D01*
X69316084Y-106649440D01*
X69262974Y-106584726D01*
X69246756Y-106571416D01*
X68185700Y-105510360D01*
X68185700Y-103812954D01*
X68300960Y-103887950D01*
X68561788Y-103992277D01*
X68782000Y-103892033D01*
X68782000Y-102795000D01*
X69140000Y-102795000D01*
X69140000Y-103892033D01*
X69360212Y-103992277D01*
X69621040Y-103887950D01*
X69856503Y-103734742D01*
X70057552Y-103538542D01*
X70216461Y-103306889D01*
X70327123Y-103048685D01*
X70337270Y-103015211D01*
X70235744Y-102795000D01*
X69140000Y-102795000D01*
X68782000Y-102795000D01*
X68762000Y-102795000D01*
X68762000Y-102437000D01*
X68782000Y-102437000D01*
X68782000Y-102417000D01*
X69140000Y-102417000D01*
X69140000Y-102437000D01*
X70235744Y-102437000D01*
X70337270Y-102216789D01*
X70327123Y-102183315D01*
X70216461Y-101925111D01*
X70057552Y-101693458D01*
X69856503Y-101497258D01*
X69621040Y-101344050D01*
X69386000Y-101250038D01*
X69386000Y-101202330D01*
X69811000Y-101202330D01*
X69864909Y-101197020D01*
X69916747Y-101181296D01*
X69964521Y-101155760D01*
X70006395Y-101121395D01*
X70040760Y-101079521D01*
X70066296Y-101031747D01*
X70082020Y-100979909D01*
X70087330Y-100926000D01*
X70087330Y-99226000D01*
X70082020Y-99172091D01*
X70066296Y-99120253D01*
X70040760Y-99072479D01*
X70006395Y-99030605D01*
X69964521Y-98996240D01*
X69916747Y-98970704D01*
X69864909Y-98954980D01*
X69811000Y-98949670D01*
X68111000Y-98949670D01*
X68057091Y-98954980D01*
X68005253Y-98970704D01*
X67957479Y-98996240D01*
X67915605Y-99030605D01*
X67881240Y-99072479D01*
X67855704Y-99120253D01*
X67839980Y-99172091D01*
X67834670Y-99226000D01*
X67834670Y-100926000D01*
X67839980Y-100979909D01*
X67855704Y-101031747D01*
X67881240Y-101079521D01*
X67915605Y-101121395D01*
X67957479Y-101155760D01*
X68005253Y-101181296D01*
X68057091Y-101197020D01*
X68063417Y-101197643D01*
X67474939Y-101786121D01*
X67458727Y-101799426D01*
X67405617Y-101864140D01*
X67392241Y-101889165D01*
X67366153Y-101937973D01*
X67341850Y-102018086D01*
X67333645Y-102101400D01*
X67335701Y-102122277D01*
X67335700Y-105665533D01*
X67333645Y-105686400D01*
X67335700Y-105707267D01*
X67335700Y-105707273D01*
X67341850Y-105769713D01*
X67366152Y-105849826D01*
X67405616Y-105923659D01*
X67458726Y-105988374D01*
X67474944Y-106001684D01*
X68523703Y-107050443D01*
X68428113Y-107090038D01*
X68243855Y-107213156D01*
X68087156Y-107369855D01*
X67964038Y-107554113D01*
X67879233Y-107758850D01*
X67836000Y-107976197D01*
X67836000Y-108197803D01*
X67879233Y-108415150D01*
X67964038Y-108619887D01*
X68087156Y-108804145D01*
X68243855Y-108960844D01*
X68428113Y-109083962D01*
X68632850Y-109168767D01*
X68850197Y-109212000D01*
X69071803Y-109212000D01*
X69289150Y-109168767D01*
X69493887Y-109083962D01*
X69678145Y-108960844D01*
X69736300Y-108902689D01*
X69736301Y-109811312D01*
X69678145Y-109753156D01*
X69493887Y-109630038D01*
X69289150Y-109545233D01*
X69071803Y-109502000D01*
X68850197Y-109502000D01*
X68632850Y-109545233D01*
X68428113Y-109630038D01*
X68243855Y-109753156D01*
X68087156Y-109909855D01*
X67964038Y-110094113D01*
X67879233Y-110298850D01*
X67836000Y-110516197D01*
X67836000Y-110737803D01*
X67879233Y-110955150D01*
X67934277Y-111088038D01*
X67464752Y-111557563D01*
X67449489Y-111570089D01*
X67399503Y-111630998D01*
X67362360Y-111700487D01*
X67350586Y-111739301D01*
X67339488Y-111775887D01*
X67331765Y-111854300D01*
X67333700Y-111873947D01*
X67333701Y-113648744D01*
X67331765Y-113668400D01*
X67339488Y-113746813D01*
X67362361Y-113822214D01*
X67399503Y-113891702D01*
X67436965Y-113937350D01*
X67436968Y-113937353D01*
X67449490Y-113952611D01*
X67464748Y-113965133D01*
X68137963Y-114638348D01*
X68150489Y-114653611D01*
X68165750Y-114666135D01*
X68211397Y-114703597D01*
X68280886Y-114740740D01*
X68356286Y-114763612D01*
X68434700Y-114771335D01*
X68454347Y-114769400D01*
X78977154Y-114769400D01*
X78996800Y-114771335D01*
X79016446Y-114769400D01*
X79016447Y-114769400D01*
X79075214Y-114763612D01*
X79150614Y-114740740D01*
X79220103Y-114703597D01*
X79281011Y-114653611D01*
X79293537Y-114638348D01*
X80753492Y-113178393D01*
X80789218Y-113185500D01*
X80922182Y-113185500D01*
X81052590Y-113159560D01*
X81175432Y-113108677D01*
X81285987Y-113034807D01*
X81380007Y-112940787D01*
X81453877Y-112830232D01*
X81504760Y-112707390D01*
X81509745Y-112682330D01*
X83928001Y-115100587D01*
X83928000Y-116373011D01*
X83775145Y-116220156D01*
X83590887Y-116097038D01*
X83386150Y-116012233D01*
X83168803Y-115969000D01*
X82947197Y-115969000D01*
X82729850Y-116012233D01*
X82525113Y-116097038D01*
X82340855Y-116220156D01*
X82283772Y-116277239D01*
X82276912Y-116207586D01*
X82254040Y-116132186D01*
X82216897Y-116062697D01*
X82179435Y-116017050D01*
X82166911Y-116001789D01*
X82151648Y-115989263D01*
X81686137Y-115523752D01*
X81673611Y-115508489D01*
X81612703Y-115458503D01*
X81543214Y-115421360D01*
X81467814Y-115398488D01*
X81409047Y-115392700D01*
X81409046Y-115392700D01*
X81389400Y-115390765D01*
X81369754Y-115392700D01*
X78493344Y-115392700D01*
X78473107Y-115362413D01*
X78379087Y-115268393D01*
X78268532Y-115194523D01*
X78145690Y-115143640D01*
X78015282Y-115117700D01*
X77882318Y-115117700D01*
X77751910Y-115143640D01*
X77629068Y-115194523D01*
X77518513Y-115268393D01*
X77424493Y-115362413D01*
X77350623Y-115472968D01*
X77299740Y-115595810D01*
X77273800Y-115726218D01*
X77273800Y-115859182D01*
X77299740Y-115989590D01*
X77350623Y-116112432D01*
X77424493Y-116222987D01*
X77518513Y-116317007D01*
X77629068Y-116390877D01*
X77751910Y-116441760D01*
X77882318Y-116467700D01*
X78015282Y-116467700D01*
X78145690Y-116441760D01*
X78268532Y-116390877D01*
X78379087Y-116317007D01*
X78473107Y-116222987D01*
X78493344Y-116192700D01*
X79396723Y-116192700D01*
X79391670Y-116244000D01*
X79391670Y-117944000D01*
X79396980Y-117997909D01*
X79412704Y-118049747D01*
X79438240Y-118097521D01*
X79472605Y-118139395D01*
X79514479Y-118173760D01*
X79562253Y-118199296D01*
X79614091Y-118215020D01*
X79668000Y-118220330D01*
X81368000Y-118220330D01*
X81421909Y-118215020D01*
X81473747Y-118199296D01*
X81521521Y-118173760D01*
X81563395Y-118139395D01*
X81597760Y-118097521D01*
X81623296Y-118049747D01*
X81639020Y-117997909D01*
X81644330Y-117944000D01*
X81644330Y-117415832D01*
X81659397Y-117428197D01*
X81728886Y-117465340D01*
X81804286Y-117488212D01*
X81807698Y-117488548D01*
X81882700Y-117495935D01*
X81902346Y-117494000D01*
X82005994Y-117494000D01*
X82061038Y-117626887D01*
X82184156Y-117811145D01*
X82340855Y-117967844D01*
X82525113Y-118090962D01*
X82729850Y-118175767D01*
X82947197Y-118219000D01*
X83168803Y-118219000D01*
X83386150Y-118175767D01*
X83590887Y-118090962D01*
X83775145Y-117967844D01*
X83931844Y-117811145D01*
X83996350Y-117714606D01*
X84043789Y-117772411D01*
X84059052Y-117784937D01*
X84812463Y-118538348D01*
X84824989Y-118553611D01*
X84885897Y-118603597D01*
X84955386Y-118640740D01*
X85030786Y-118663612D01*
X85088122Y-118669259D01*
X85109200Y-118671335D01*
X85128847Y-118669400D01*
X88674954Y-118669400D01*
X88694600Y-118671335D01*
X88714246Y-118669400D01*
X88714247Y-118669400D01*
X88773014Y-118663612D01*
X88848414Y-118640740D01*
X88917903Y-118603597D01*
X88978811Y-118553611D01*
X88991337Y-118538348D01*
X89769863Y-117759823D01*
X89804156Y-117811145D01*
X89960855Y-117967844D01*
X90145113Y-118090962D01*
X90349850Y-118175767D01*
X90567197Y-118219000D01*
X90788803Y-118219000D01*
X91006150Y-118175767D01*
X91210887Y-118090962D01*
X91395145Y-117967844D01*
X91551844Y-117811145D01*
X91587784Y-117757357D01*
X91592916Y-117766959D01*
X91646026Y-117831674D01*
X91662243Y-117844983D01*
X92397421Y-118580162D01*
X92410726Y-118596374D01*
X92475440Y-118649484D01*
X92549273Y-118688948D01*
X92590378Y-118701417D01*
X92629385Y-118713250D01*
X92637798Y-118714079D01*
X92691826Y-118719400D01*
X92691832Y-118719400D01*
X92712699Y-118721455D01*
X92733566Y-118719400D01*
X98791533Y-118719400D01*
X98812400Y-118721455D01*
X98833267Y-118719400D01*
X98833274Y-118719400D01*
X98895714Y-118713250D01*
X98975827Y-118688948D01*
X99049660Y-118649484D01*
X99114374Y-118596374D01*
X99127683Y-118580157D01*
X99923462Y-117784379D01*
X99938193Y-117772289D01*
X99964156Y-117811145D01*
X100120855Y-117967844D01*
X100305113Y-118090962D01*
X100509850Y-118175767D01*
X100727197Y-118219000D01*
X100948803Y-118219000D01*
X101166150Y-118175767D01*
X101370887Y-118090962D01*
X101555145Y-117967844D01*
X101711844Y-117811145D01*
X101834962Y-117626887D01*
X101919767Y-117422150D01*
X101963000Y-117204803D01*
X101963000Y-116990913D01*
X104406360Y-116990913D01*
X104406360Y-117298687D01*
X104466404Y-117600547D01*
X104584184Y-117884893D01*
X104755174Y-118140797D01*
X104972803Y-118358426D01*
X105228707Y-118529416D01*
X105513053Y-118647196D01*
X105814913Y-118707240D01*
X106122687Y-118707240D01*
X106424547Y-118647196D01*
X106708893Y-118529416D01*
X106964797Y-118358426D01*
X107182426Y-118140797D01*
X107353416Y-117884893D01*
X107471196Y-117600547D01*
X107531240Y-117298687D01*
X107531240Y-116990913D01*
X107471196Y-116689053D01*
X107353416Y-116404707D01*
X107182426Y-116148803D01*
X106964797Y-115931174D01*
X106708893Y-115760184D01*
X106424547Y-115642404D01*
X106122687Y-115582360D01*
X105814913Y-115582360D01*
X105513053Y-115642404D01*
X105228707Y-115760184D01*
X104972803Y-115931174D01*
X104755174Y-116148803D01*
X104584184Y-116404707D01*
X104466404Y-116689053D01*
X104406360Y-116990913D01*
X101963000Y-116990913D01*
X101963000Y-116983197D01*
X101919767Y-116765850D01*
X101834962Y-116561113D01*
X101711844Y-116376855D01*
X101555145Y-116220156D01*
X101370887Y-116097038D01*
X101166150Y-116012233D01*
X100948803Y-115969000D01*
X100727197Y-115969000D01*
X100509850Y-116012233D01*
X100305113Y-116097038D01*
X100120855Y-116220156D01*
X99964156Y-116376855D01*
X99841038Y-116561113D01*
X99796350Y-116669000D01*
X99658574Y-116669000D01*
X99637700Y-116666944D01*
X99616826Y-116669000D01*
X99554386Y-116675150D01*
X99474273Y-116699452D01*
X99400440Y-116738916D01*
X99376686Y-116758411D01*
X99294962Y-116561113D01*
X99171844Y-116376855D01*
X99015145Y-116220156D01*
X98830887Y-116097038D01*
X98698000Y-116041994D01*
X98698000Y-115938335D01*
X98699934Y-115918699D01*
X98698000Y-115899063D01*
X98698000Y-115899053D01*
X98692212Y-115840286D01*
X98669340Y-115764886D01*
X98632197Y-115695397D01*
X98582211Y-115634489D01*
X98566948Y-115621963D01*
X93110000Y-110165015D01*
X93110000Y-97646330D01*
X93560000Y-97646330D01*
X93613909Y-97641020D01*
X93665747Y-97625296D01*
X93713521Y-97599760D01*
X93755395Y-97565395D01*
X93789760Y-97523521D01*
X93815296Y-97475747D01*
X93831020Y-97423909D01*
X93836330Y-97370000D01*
X93836330Y-95727500D01*
X94451511Y-95727500D01*
X94376156Y-95802855D01*
X94253038Y-95987113D01*
X94168233Y-96191850D01*
X94125000Y-96409197D01*
X94125000Y-96630803D01*
X94168233Y-96848150D01*
X94253038Y-97052887D01*
X94376156Y-97237145D01*
X94532855Y-97393844D01*
X94717113Y-97516962D01*
X94921850Y-97601767D01*
X95139197Y-97645000D01*
X95360803Y-97645000D01*
X95578150Y-97601767D01*
X95782887Y-97516962D01*
X95967145Y-97393844D01*
X96123844Y-97237145D01*
X96246962Y-97052887D01*
X96331767Y-96848150D01*
X96375000Y-96630803D01*
X96375000Y-96409197D01*
X96337528Y-96220813D01*
X96665000Y-96548285D01*
X96665000Y-96630803D01*
X96708233Y-96848150D01*
X96793038Y-97052887D01*
X96802401Y-97066900D01*
X96802400Y-104324406D01*
X96782093Y-104344713D01*
X96708223Y-104455268D01*
X96657340Y-104578110D01*
X96631400Y-104708518D01*
X96631400Y-104841482D01*
X96657340Y-104971890D01*
X96708223Y-105094732D01*
X96782093Y-105205287D01*
X96876113Y-105299307D01*
X96986668Y-105373177D01*
X97109510Y-105424060D01*
X97239918Y-105450000D01*
X97372882Y-105450000D01*
X97503290Y-105424060D01*
X97626132Y-105373177D01*
X97736687Y-105299307D01*
X97830707Y-105205287D01*
X97904577Y-105094732D01*
X97955460Y-104971890D01*
X97981400Y-104841482D01*
X97981400Y-104708518D01*
X97955460Y-104578110D01*
X97904577Y-104455268D01*
X97830707Y-104344713D01*
X97736687Y-104250693D01*
X97626132Y-104176823D01*
X97602400Y-104166993D01*
X97602400Y-97629724D01*
X97679197Y-97645000D01*
X97900803Y-97645000D01*
X98118150Y-97601767D01*
X98322887Y-97516962D01*
X98507145Y-97393844D01*
X98663844Y-97237145D01*
X98786962Y-97052887D01*
X98871767Y-96848150D01*
X98879101Y-96811279D01*
X98931397Y-96854197D01*
X99000886Y-96891340D01*
X99076286Y-96914212D01*
X99154700Y-96921935D01*
X99174346Y-96920000D01*
X99277994Y-96920000D01*
X99333038Y-97052887D01*
X99456156Y-97237145D01*
X99612855Y-97393844D01*
X99797113Y-97516962D01*
X100001850Y-97601767D01*
X100219197Y-97645000D01*
X100440803Y-97645000D01*
X100658150Y-97601767D01*
X100862887Y-97516962D01*
X101047145Y-97393844D01*
X101203844Y-97237145D01*
X101326962Y-97052887D01*
X101411767Y-96848150D01*
X101455000Y-96630803D01*
X101455000Y-96409197D01*
X101411767Y-96191850D01*
X101326962Y-95987113D01*
X101203844Y-95802855D01*
X101047145Y-95646156D01*
X100862887Y-95523038D01*
X100658150Y-95438233D01*
X100440803Y-95395000D01*
X100219197Y-95395000D01*
X100001850Y-95438233D01*
X99797113Y-95523038D01*
X99612855Y-95646156D01*
X99456156Y-95802855D01*
X99421863Y-95854177D01*
X98228685Y-94661000D01*
X105392835Y-94661000D01*
X105228707Y-94728984D01*
X104972803Y-94899974D01*
X104755174Y-95117603D01*
X104584184Y-95373507D01*
X104466404Y-95657853D01*
X104406360Y-95959713D01*
X104406360Y-96267487D01*
X104466404Y-96569347D01*
X104584184Y-96853693D01*
X104755174Y-97109597D01*
X104972803Y-97327226D01*
X105228707Y-97498216D01*
X105513053Y-97615996D01*
X105814913Y-97676040D01*
X106122687Y-97676040D01*
X106424547Y-97615996D01*
X106708893Y-97498216D01*
X106964797Y-97327226D01*
X107182426Y-97109597D01*
X107353416Y-96853693D01*
X107471196Y-96569347D01*
X107531240Y-96267487D01*
X107531240Y-95959713D01*
X107471196Y-95657853D01*
X107353416Y-95373507D01*
X107182426Y-95117603D01*
X106964797Y-94899974D01*
X106708893Y-94728984D01*
X106544765Y-94661000D01*
X107554330Y-94661000D01*
X107584452Y-94663954D01*
X107599318Y-94668442D01*
X107613029Y-94675732D01*
X107625062Y-94685546D01*
X107634958Y-94697508D01*
X107642344Y-94711168D01*
X107646937Y-94726006D01*
X107650001Y-94755154D01*
X107650000Y-118730330D01*
X107647047Y-118760452D01*
X107642558Y-118775319D01*
X107635268Y-118789029D01*
X107625455Y-118801061D01*
X107613493Y-118810957D01*
X107599827Y-118818346D01*
X107584996Y-118822937D01*
X107555855Y-118826000D01*
X67197670Y-118826000D01*
X67167548Y-118823047D01*
X67152681Y-118818558D01*
X67138971Y-118811268D01*
X67126939Y-118801455D01*
X67117043Y-118789493D01*
X67109654Y-118775827D01*
X67105063Y-118760996D01*
X67102000Y-118731855D01*
X67102000Y-117041713D01*
X67119160Y-117041713D01*
X67119160Y-117349487D01*
X67179204Y-117651347D01*
X67296984Y-117935693D01*
X67467974Y-118191597D01*
X67685603Y-118409226D01*
X67941507Y-118580216D01*
X68225853Y-118697996D01*
X68527713Y-118758040D01*
X68835487Y-118758040D01*
X69137347Y-118697996D01*
X69421693Y-118580216D01*
X69677597Y-118409226D01*
X69895226Y-118191597D01*
X70066216Y-117935693D01*
X70183996Y-117651347D01*
X70244040Y-117349487D01*
X70244040Y-117041713D01*
X70183996Y-116739853D01*
X70066216Y-116455507D01*
X69895226Y-116199603D01*
X69677597Y-115981974D01*
X69421693Y-115810984D01*
X69137347Y-115693204D01*
X68835487Y-115633160D01*
X68527713Y-115633160D01*
X68225853Y-115693204D01*
X67941507Y-115810984D01*
X67685603Y-115981974D01*
X67467974Y-116199603D01*
X67296984Y-116455507D01*
X67179204Y-116739853D01*
X67119160Y-117041713D01*
X67102000Y-117041713D01*
X67102000Y-94756670D01*
X67104954Y-94726548D01*
X67108514Y-94714755D01*
X67172617Y-94663473D01*
X67196145Y-94661000D01*
X68105635Y-94661000D01*
X67941507Y-94728984D01*
%TA.AperFunction,Conductor*%
D17*
G36*
X67941507Y-94728984D02*
G01*
X67685603Y-94899974D01*
X67467974Y-95117603D01*
X67296984Y-95373507D01*
X67179204Y-95657853D01*
X67119160Y-95959713D01*
X67119160Y-96267487D01*
X67179204Y-96569347D01*
X67296984Y-96853693D01*
X67467974Y-97109597D01*
X67685603Y-97327226D01*
X67941507Y-97498216D01*
X68225853Y-97615996D01*
X68527713Y-97676040D01*
X68835487Y-97676040D01*
X69137347Y-97615996D01*
X69421693Y-97498216D01*
X69677597Y-97327226D01*
X69895226Y-97109597D01*
X70066216Y-96853693D01*
X70183996Y-96569347D01*
X70244040Y-96267487D01*
X70244040Y-95959713D01*
X70183996Y-95657853D01*
X70066216Y-95373507D01*
X69895226Y-95117603D01*
X69677597Y-94899974D01*
X69421693Y-94728984D01*
X69257565Y-94661000D01*
X84675214Y-94661000D01*
X83645652Y-95690563D01*
X83630389Y-95703089D01*
X83580403Y-95763998D01*
X83543260Y-95833487D01*
X83520388Y-95908886D01*
X83520388Y-95908887D01*
X83517087Y-95942402D01*
X83423844Y-95802855D01*
X83267145Y-95646156D01*
X83082887Y-95523038D01*
X82878150Y-95438233D01*
X82660803Y-95395000D01*
X82439197Y-95395000D01*
X82221850Y-95438233D01*
X82017113Y-95523038D01*
X81832855Y-95646156D01*
X81676156Y-95802855D01*
X81553038Y-95987113D01*
X81468233Y-96191850D01*
X81425000Y-96409197D01*
X81425000Y-96630803D01*
X81468233Y-96848150D01*
X81553038Y-97052887D01*
X81676156Y-97237145D01*
X81832855Y-97393844D01*
X82017113Y-97516962D01*
X82221850Y-97601767D01*
X82439197Y-97645000D01*
X82529114Y-97645000D01*
X79373015Y-100801100D01*
X77472435Y-100801100D01*
X77452799Y-100799166D01*
X77433163Y-100801100D01*
X77433153Y-100801100D01*
X77374386Y-100806888D01*
X77298986Y-100829760D01*
X77229497Y-100866903D01*
X77168589Y-100916889D01*
X77156065Y-100932150D01*
X75584852Y-102503363D01*
X75569589Y-102515889D01*
X75519603Y-102576798D01*
X75482460Y-102646287D01*
X75467296Y-102696277D01*
X75459588Y-102721687D01*
X75451865Y-102800100D01*
X75453800Y-102819747D01*
X75453800Y-103192756D01*
X75423513Y-103212993D01*
X75329493Y-103307013D01*
X75255623Y-103417568D01*
X75204740Y-103540410D01*
X75178800Y-103670818D01*
X75178800Y-103803782D01*
X75204740Y-103934190D01*
X75255623Y-104057032D01*
X75329493Y-104167587D01*
X75423513Y-104261607D01*
X75453801Y-104281844D01*
X75453800Y-105741214D01*
X72627330Y-108567685D01*
X72627330Y-107237000D01*
X72622020Y-107183091D01*
X72606296Y-107131253D01*
X72580760Y-107083479D01*
X72546395Y-107041605D01*
X72504521Y-107007240D01*
X72456747Y-106981704D01*
X72404909Y-106965980D01*
X72351000Y-106960670D01*
X70984915Y-106960670D01*
X79850285Y-98095300D01*
X79990354Y-98095300D01*
X80010000Y-98097235D01*
X80088414Y-98089512D01*
X80163814Y-98066640D01*
X80233303Y-98029497D01*
X80294211Y-97979511D01*
X80344197Y-97918603D01*
X80381340Y-97849114D01*
X80404212Y-97773714D01*
X80410000Y-97714947D01*
X80411935Y-97695300D01*
X80410000Y-97675653D01*
X80410000Y-97646330D01*
X80860000Y-97646330D01*
X80913909Y-97641020D01*
X80965747Y-97625296D01*
X81013521Y-97599760D01*
X81055395Y-97565395D01*
X81089760Y-97523521D01*
X81115296Y-97475747D01*
X81131020Y-97423909D01*
X81136330Y-97370000D01*
X81136330Y-95670000D01*
X81131020Y-95616091D01*
X81115296Y-95564253D01*
X81089760Y-95516479D01*
X81055395Y-95474605D01*
X81013521Y-95440240D01*
X80965747Y-95414704D01*
X80913909Y-95398980D01*
X80860000Y-95393670D01*
X79160000Y-95393670D01*
X79106091Y-95398980D01*
X79054253Y-95414704D01*
X79006479Y-95440240D01*
X78964605Y-95474605D01*
X78930240Y-95516479D01*
X78904704Y-95564253D01*
X78888980Y-95616091D01*
X78883670Y-95670000D01*
X78883670Y-97370000D01*
X78888980Y-97423909D01*
X78904704Y-97475747D01*
X78930240Y-97523521D01*
X78964605Y-97565395D01*
X79006479Y-97599760D01*
X79054253Y-97625296D01*
X79106091Y-97641020D01*
X79160000Y-97646330D01*
X79167885Y-97646330D01*
X69867352Y-106946863D01*
X69852089Y-106959389D01*
X69802103Y-107020298D01*
X69764960Y-107089787D01*
X69750821Y-107136397D01*
X69742088Y-107165187D01*
X69734365Y-107243600D01*
X69736300Y-107263247D01*
X69736300Y-107271311D01*
X69678145Y-107213156D01*
X69493887Y-107090038D01*
X69386000Y-107045350D01*
X69386000Y-106907574D01*
X69388056Y-106886700D01*
X69379850Y-106803386D01*
X69355548Y-106723273D01*
X69348185Y-106709498D01*
X69316084Y-106649440D01*
X69262974Y-106584726D01*
X69246756Y-106571416D01*
X68185700Y-105510360D01*
X68185700Y-103812954D01*
X68300960Y-103887950D01*
X68561788Y-103992277D01*
X68782000Y-103892033D01*
X68782000Y-102795000D01*
X69140000Y-102795000D01*
X69140000Y-103892033D01*
X69360212Y-103992277D01*
X69621040Y-103887950D01*
X69856503Y-103734742D01*
X70057552Y-103538542D01*
X70216461Y-103306889D01*
X70327123Y-103048685D01*
X70337270Y-103015211D01*
X70235744Y-102795000D01*
X69140000Y-102795000D01*
X68782000Y-102795000D01*
X68762000Y-102795000D01*
X68762000Y-102437000D01*
X68782000Y-102437000D01*
X68782000Y-102417000D01*
X69140000Y-102417000D01*
X69140000Y-102437000D01*
X70235744Y-102437000D01*
X70337270Y-102216789D01*
X70327123Y-102183315D01*
X70216461Y-101925111D01*
X70057552Y-101693458D01*
X69856503Y-101497258D01*
X69621040Y-101344050D01*
X69386000Y-101250038D01*
X69386000Y-101202330D01*
X69811000Y-101202330D01*
X69864909Y-101197020D01*
X69916747Y-101181296D01*
X69964521Y-101155760D01*
X70006395Y-101121395D01*
X70040760Y-101079521D01*
X70066296Y-101031747D01*
X70082020Y-100979909D01*
X70087330Y-100926000D01*
X70087330Y-99226000D01*
X70082020Y-99172091D01*
X70066296Y-99120253D01*
X70040760Y-99072479D01*
X70006395Y-99030605D01*
X69964521Y-98996240D01*
X69916747Y-98970704D01*
X69864909Y-98954980D01*
X69811000Y-98949670D01*
X68111000Y-98949670D01*
X68057091Y-98954980D01*
X68005253Y-98970704D01*
X67957479Y-98996240D01*
X67915605Y-99030605D01*
X67881240Y-99072479D01*
X67855704Y-99120253D01*
X67839980Y-99172091D01*
X67834670Y-99226000D01*
X67834670Y-100926000D01*
X67839980Y-100979909D01*
X67855704Y-101031747D01*
X67881240Y-101079521D01*
X67915605Y-101121395D01*
X67957479Y-101155760D01*
X68005253Y-101181296D01*
X68057091Y-101197020D01*
X68063417Y-101197643D01*
X67474939Y-101786121D01*
X67458727Y-101799426D01*
X67405617Y-101864140D01*
X67392241Y-101889165D01*
X67366153Y-101937973D01*
X67341850Y-102018086D01*
X67333645Y-102101400D01*
X67335701Y-102122277D01*
X67335700Y-105665533D01*
X67333645Y-105686400D01*
X67335700Y-105707267D01*
X67335700Y-105707273D01*
X67341850Y-105769713D01*
X67366152Y-105849826D01*
X67405616Y-105923659D01*
X67458726Y-105988374D01*
X67474944Y-106001684D01*
X68523703Y-107050443D01*
X68428113Y-107090038D01*
X68243855Y-107213156D01*
X68087156Y-107369855D01*
X67964038Y-107554113D01*
X67879233Y-107758850D01*
X67836000Y-107976197D01*
X67836000Y-108197803D01*
X67879233Y-108415150D01*
X67964038Y-108619887D01*
X68087156Y-108804145D01*
X68243855Y-108960844D01*
X68428113Y-109083962D01*
X68632850Y-109168767D01*
X68850197Y-109212000D01*
X69071803Y-109212000D01*
X69289150Y-109168767D01*
X69493887Y-109083962D01*
X69678145Y-108960844D01*
X69736300Y-108902689D01*
X69736301Y-109811312D01*
X69678145Y-109753156D01*
X69493887Y-109630038D01*
X69289150Y-109545233D01*
X69071803Y-109502000D01*
X68850197Y-109502000D01*
X68632850Y-109545233D01*
X68428113Y-109630038D01*
X68243855Y-109753156D01*
X68087156Y-109909855D01*
X67964038Y-110094113D01*
X67879233Y-110298850D01*
X67836000Y-110516197D01*
X67836000Y-110737803D01*
X67879233Y-110955150D01*
X67934277Y-111088038D01*
X67464752Y-111557563D01*
X67449489Y-111570089D01*
X67399503Y-111630998D01*
X67362360Y-111700487D01*
X67350586Y-111739301D01*
X67339488Y-111775887D01*
X67331765Y-111854300D01*
X67333700Y-111873947D01*
X67333701Y-113648744D01*
X67331765Y-113668400D01*
X67339488Y-113746813D01*
X67362361Y-113822214D01*
X67399503Y-113891702D01*
X67436965Y-113937350D01*
X67436968Y-113937353D01*
X67449490Y-113952611D01*
X67464748Y-113965133D01*
X68137963Y-114638348D01*
X68150489Y-114653611D01*
X68165750Y-114666135D01*
X68211397Y-114703597D01*
X68280886Y-114740740D01*
X68356286Y-114763612D01*
X68434700Y-114771335D01*
X68454347Y-114769400D01*
X78977154Y-114769400D01*
X78996800Y-114771335D01*
X79016446Y-114769400D01*
X79016447Y-114769400D01*
X79075214Y-114763612D01*
X79150614Y-114740740D01*
X79220103Y-114703597D01*
X79281011Y-114653611D01*
X79293537Y-114638348D01*
X80753492Y-113178393D01*
X80789218Y-113185500D01*
X80922182Y-113185500D01*
X81052590Y-113159560D01*
X81175432Y-113108677D01*
X81285987Y-113034807D01*
X81380007Y-112940787D01*
X81453877Y-112830232D01*
X81504760Y-112707390D01*
X81509745Y-112682330D01*
X83928001Y-115100587D01*
X83928000Y-116373011D01*
X83775145Y-116220156D01*
X83590887Y-116097038D01*
X83386150Y-116012233D01*
X83168803Y-115969000D01*
X82947197Y-115969000D01*
X82729850Y-116012233D01*
X82525113Y-116097038D01*
X82340855Y-116220156D01*
X82283772Y-116277239D01*
X82276912Y-116207586D01*
X82254040Y-116132186D01*
X82216897Y-116062697D01*
X82179435Y-116017050D01*
X82166911Y-116001789D01*
X82151648Y-115989263D01*
X81686137Y-115523752D01*
X81673611Y-115508489D01*
X81612703Y-115458503D01*
X81543214Y-115421360D01*
X81467814Y-115398488D01*
X81409047Y-115392700D01*
X81409046Y-115392700D01*
X81389400Y-115390765D01*
X81369754Y-115392700D01*
X78493344Y-115392700D01*
X78473107Y-115362413D01*
X78379087Y-115268393D01*
X78268532Y-115194523D01*
X78145690Y-115143640D01*
X78015282Y-115117700D01*
X77882318Y-115117700D01*
X77751910Y-115143640D01*
X77629068Y-115194523D01*
X77518513Y-115268393D01*
X77424493Y-115362413D01*
X77350623Y-115472968D01*
X77299740Y-115595810D01*
X77273800Y-115726218D01*
X77273800Y-115859182D01*
X77299740Y-115989590D01*
X77350623Y-116112432D01*
X77424493Y-116222987D01*
X77518513Y-116317007D01*
X77629068Y-116390877D01*
X77751910Y-116441760D01*
X77882318Y-116467700D01*
X78015282Y-116467700D01*
X78145690Y-116441760D01*
X78268532Y-116390877D01*
X78379087Y-116317007D01*
X78473107Y-116222987D01*
X78493344Y-116192700D01*
X79396723Y-116192700D01*
X79391670Y-116244000D01*
X79391670Y-117944000D01*
X79396980Y-117997909D01*
X79412704Y-118049747D01*
X79438240Y-118097521D01*
X79472605Y-118139395D01*
X79514479Y-118173760D01*
X79562253Y-118199296D01*
X79614091Y-118215020D01*
X79668000Y-118220330D01*
X81368000Y-118220330D01*
X81421909Y-118215020D01*
X81473747Y-118199296D01*
X81521521Y-118173760D01*
X81563395Y-118139395D01*
X81597760Y-118097521D01*
X81623296Y-118049747D01*
X81639020Y-117997909D01*
X81644330Y-117944000D01*
X81644330Y-117415832D01*
X81659397Y-117428197D01*
X81728886Y-117465340D01*
X81804286Y-117488212D01*
X81807698Y-117488548D01*
X81882700Y-117495935D01*
X81902346Y-117494000D01*
X82005994Y-117494000D01*
X82061038Y-117626887D01*
X82184156Y-117811145D01*
X82340855Y-117967844D01*
X82525113Y-118090962D01*
X82729850Y-118175767D01*
X82947197Y-118219000D01*
X83168803Y-118219000D01*
X83386150Y-118175767D01*
X83590887Y-118090962D01*
X83775145Y-117967844D01*
X83931844Y-117811145D01*
X83996350Y-117714606D01*
X84043789Y-117772411D01*
X84059052Y-117784937D01*
X84812463Y-118538348D01*
X84824989Y-118553611D01*
X84885897Y-118603597D01*
X84955386Y-118640740D01*
X85030786Y-118663612D01*
X85088122Y-118669259D01*
X85109200Y-118671335D01*
X85128847Y-118669400D01*
X88674954Y-118669400D01*
X88694600Y-118671335D01*
X88714246Y-118669400D01*
X88714247Y-118669400D01*
X88773014Y-118663612D01*
X88848414Y-118640740D01*
X88917903Y-118603597D01*
X88978811Y-118553611D01*
X88991337Y-118538348D01*
X89769863Y-117759823D01*
X89804156Y-117811145D01*
X89960855Y-117967844D01*
X90145113Y-118090962D01*
X90349850Y-118175767D01*
X90567197Y-118219000D01*
X90788803Y-118219000D01*
X91006150Y-118175767D01*
X91210887Y-118090962D01*
X91395145Y-117967844D01*
X91551844Y-117811145D01*
X91587784Y-117757357D01*
X91592916Y-117766959D01*
X91646026Y-117831674D01*
X91662243Y-117844983D01*
X92397421Y-118580162D01*
X92410726Y-118596374D01*
X92475440Y-118649484D01*
X92549273Y-118688948D01*
X92590378Y-118701417D01*
X92629385Y-118713250D01*
X92637798Y-118714079D01*
X92691826Y-118719400D01*
X92691832Y-118719400D01*
X92712699Y-118721455D01*
X92733566Y-118719400D01*
X98791533Y-118719400D01*
X98812400Y-118721455D01*
X98833267Y-118719400D01*
X98833274Y-118719400D01*
X98895714Y-118713250D01*
X98975827Y-118688948D01*
X99049660Y-118649484D01*
X99114374Y-118596374D01*
X99127683Y-118580157D01*
X99923462Y-117784379D01*
X99938193Y-117772289D01*
X99964156Y-117811145D01*
X100120855Y-117967844D01*
X100305113Y-118090962D01*
X100509850Y-118175767D01*
X100727197Y-118219000D01*
X100948803Y-118219000D01*
X101166150Y-118175767D01*
X101370887Y-118090962D01*
X101555145Y-117967844D01*
X101711844Y-117811145D01*
X101834962Y-117626887D01*
X101919767Y-117422150D01*
X101963000Y-117204803D01*
X101963000Y-116990913D01*
X104406360Y-116990913D01*
X104406360Y-117298687D01*
X104466404Y-117600547D01*
X104584184Y-117884893D01*
X104755174Y-118140797D01*
X104972803Y-118358426D01*
X105228707Y-118529416D01*
X105513053Y-118647196D01*
X105814913Y-118707240D01*
X106122687Y-118707240D01*
X106424547Y-118647196D01*
X106708893Y-118529416D01*
X106964797Y-118358426D01*
X107182426Y-118140797D01*
X107353416Y-117884893D01*
X107471196Y-117600547D01*
X107531240Y-117298687D01*
X107531240Y-116990913D01*
X107471196Y-116689053D01*
X107353416Y-116404707D01*
X107182426Y-116148803D01*
X106964797Y-115931174D01*
X106708893Y-115760184D01*
X106424547Y-115642404D01*
X106122687Y-115582360D01*
X105814913Y-115582360D01*
X105513053Y-115642404D01*
X105228707Y-115760184D01*
X104972803Y-115931174D01*
X104755174Y-116148803D01*
X104584184Y-116404707D01*
X104466404Y-116689053D01*
X104406360Y-116990913D01*
X101963000Y-116990913D01*
X101963000Y-116983197D01*
X101919767Y-116765850D01*
X101834962Y-116561113D01*
X101711844Y-116376855D01*
X101555145Y-116220156D01*
X101370887Y-116097038D01*
X101166150Y-116012233D01*
X100948803Y-115969000D01*
X100727197Y-115969000D01*
X100509850Y-116012233D01*
X100305113Y-116097038D01*
X100120855Y-116220156D01*
X99964156Y-116376855D01*
X99841038Y-116561113D01*
X99796350Y-116669000D01*
X99658574Y-116669000D01*
X99637700Y-116666944D01*
X99616826Y-116669000D01*
X99554386Y-116675150D01*
X99474273Y-116699452D01*
X99400440Y-116738916D01*
X99376686Y-116758411D01*
X99294962Y-116561113D01*
X99171844Y-116376855D01*
X99015145Y-116220156D01*
X98830887Y-116097038D01*
X98698000Y-116041994D01*
X98698000Y-115938335D01*
X98699934Y-115918699D01*
X98698000Y-115899063D01*
X98698000Y-115899053D01*
X98692212Y-115840286D01*
X98669340Y-115764886D01*
X98632197Y-115695397D01*
X98582211Y-115634489D01*
X98566948Y-115621963D01*
X93110000Y-110165015D01*
X93110000Y-97646330D01*
X93560000Y-97646330D01*
X93613909Y-97641020D01*
X93665747Y-97625296D01*
X93713521Y-97599760D01*
X93755395Y-97565395D01*
X93789760Y-97523521D01*
X93815296Y-97475747D01*
X93831020Y-97423909D01*
X93836330Y-97370000D01*
X93836330Y-95727500D01*
X94451511Y-95727500D01*
X94376156Y-95802855D01*
X94253038Y-95987113D01*
X94168233Y-96191850D01*
X94125000Y-96409197D01*
X94125000Y-96630803D01*
X94168233Y-96848150D01*
X94253038Y-97052887D01*
X94376156Y-97237145D01*
X94532855Y-97393844D01*
X94717113Y-97516962D01*
X94921850Y-97601767D01*
X95139197Y-97645000D01*
X95360803Y-97645000D01*
X95578150Y-97601767D01*
X95782887Y-97516962D01*
X95967145Y-97393844D01*
X96123844Y-97237145D01*
X96246962Y-97052887D01*
X96331767Y-96848150D01*
X96375000Y-96630803D01*
X96375000Y-96409197D01*
X96337528Y-96220813D01*
X96665000Y-96548285D01*
X96665000Y-96630803D01*
X96708233Y-96848150D01*
X96793038Y-97052887D01*
X96802401Y-97066900D01*
X96802400Y-104324406D01*
X96782093Y-104344713D01*
X96708223Y-104455268D01*
X96657340Y-104578110D01*
X96631400Y-104708518D01*
X96631400Y-104841482D01*
X96657340Y-104971890D01*
X96708223Y-105094732D01*
X96782093Y-105205287D01*
X96876113Y-105299307D01*
X96986668Y-105373177D01*
X97109510Y-105424060D01*
X97239918Y-105450000D01*
X97372882Y-105450000D01*
X97503290Y-105424060D01*
X97626132Y-105373177D01*
X97736687Y-105299307D01*
X97830707Y-105205287D01*
X97904577Y-105094732D01*
X97955460Y-104971890D01*
X97981400Y-104841482D01*
X97981400Y-104708518D01*
X97955460Y-104578110D01*
X97904577Y-104455268D01*
X97830707Y-104344713D01*
X97736687Y-104250693D01*
X97626132Y-104176823D01*
X97602400Y-104166993D01*
X97602400Y-97629724D01*
X97679197Y-97645000D01*
X97900803Y-97645000D01*
X98118150Y-97601767D01*
X98322887Y-97516962D01*
X98507145Y-97393844D01*
X98663844Y-97237145D01*
X98786962Y-97052887D01*
X98871767Y-96848150D01*
X98879101Y-96811279D01*
X98931397Y-96854197D01*
X99000886Y-96891340D01*
X99076286Y-96914212D01*
X99154700Y-96921935D01*
X99174346Y-96920000D01*
X99277994Y-96920000D01*
X99333038Y-97052887D01*
X99456156Y-97237145D01*
X99612855Y-97393844D01*
X99797113Y-97516962D01*
X100001850Y-97601767D01*
X100219197Y-97645000D01*
X100440803Y-97645000D01*
X100658150Y-97601767D01*
X100862887Y-97516962D01*
X101047145Y-97393844D01*
X101203844Y-97237145D01*
X101326962Y-97052887D01*
X101411767Y-96848150D01*
X101455000Y-96630803D01*
X101455000Y-96409197D01*
X101411767Y-96191850D01*
X101326962Y-95987113D01*
X101203844Y-95802855D01*
X101047145Y-95646156D01*
X100862887Y-95523038D01*
X100658150Y-95438233D01*
X100440803Y-95395000D01*
X100219197Y-95395000D01*
X100001850Y-95438233D01*
X99797113Y-95523038D01*
X99612855Y-95646156D01*
X99456156Y-95802855D01*
X99421863Y-95854177D01*
X98228685Y-94661000D01*
X105392835Y-94661000D01*
X105228707Y-94728984D01*
X104972803Y-94899974D01*
X104755174Y-95117603D01*
X104584184Y-95373507D01*
X104466404Y-95657853D01*
X104406360Y-95959713D01*
X104406360Y-96267487D01*
X104466404Y-96569347D01*
X104584184Y-96853693D01*
X104755174Y-97109597D01*
X104972803Y-97327226D01*
X105228707Y-97498216D01*
X105513053Y-97615996D01*
X105814913Y-97676040D01*
X106122687Y-97676040D01*
X106424547Y-97615996D01*
X106708893Y-97498216D01*
X106964797Y-97327226D01*
X107182426Y-97109597D01*
X107353416Y-96853693D01*
X107471196Y-96569347D01*
X107531240Y-96267487D01*
X107531240Y-95959713D01*
X107471196Y-95657853D01*
X107353416Y-95373507D01*
X107182426Y-95117603D01*
X106964797Y-94899974D01*
X106708893Y-94728984D01*
X106544765Y-94661000D01*
X107554330Y-94661000D01*
X107584452Y-94663954D01*
X107599318Y-94668442D01*
X107613029Y-94675732D01*
X107625062Y-94685546D01*
X107634958Y-94697508D01*
X107642344Y-94711168D01*
X107646937Y-94726006D01*
X107650001Y-94755154D01*
X107650000Y-118730330D01*
X107647047Y-118760452D01*
X107642558Y-118775319D01*
X107635268Y-118789029D01*
X107625455Y-118801061D01*
X107613493Y-118810957D01*
X107599827Y-118818346D01*
X107584996Y-118822937D01*
X107555855Y-118826000D01*
X67197670Y-118826000D01*
X67167548Y-118823047D01*
X67152681Y-118818558D01*
X67138971Y-118811268D01*
X67126939Y-118801455D01*
X67117043Y-118789493D01*
X67109654Y-118775827D01*
X67105063Y-118760996D01*
X67102000Y-118731855D01*
X67102000Y-117041713D01*
X67119160Y-117041713D01*
X67119160Y-117349487D01*
X67179204Y-117651347D01*
X67296984Y-117935693D01*
X67467974Y-118191597D01*
X67685603Y-118409226D01*
X67941507Y-118580216D01*
X68225853Y-118697996D01*
X68527713Y-118758040D01*
X68835487Y-118758040D01*
X69137347Y-118697996D01*
X69421693Y-118580216D01*
X69677597Y-118409226D01*
X69895226Y-118191597D01*
X70066216Y-117935693D01*
X70183996Y-117651347D01*
X70244040Y-117349487D01*
X70244040Y-117041713D01*
X70183996Y-116739853D01*
X70066216Y-116455507D01*
X69895226Y-116199603D01*
X69677597Y-115981974D01*
X69421693Y-115810984D01*
X69137347Y-115693204D01*
X68835487Y-115633160D01*
X68527713Y-115633160D01*
X68225853Y-115693204D01*
X67941507Y-115810984D01*
X67685603Y-115981974D01*
X67467974Y-116199603D01*
X67296984Y-116455507D01*
X67179204Y-116739853D01*
X67119160Y-117041713D01*
X67102000Y-117041713D01*
X67102000Y-94756670D01*
X67104954Y-94726548D01*
X67108514Y-94714755D01*
X67172617Y-94663473D01*
X67196145Y-94661000D01*
X68105635Y-94661000D01*
X67941507Y-94728984D01*
G37*
%TD.AperFunction*%
%TD*%
M02*
