%TF.GenerationSoftware,KiCad,Pcbnew,5.1.10-88a1d61d58~88~ubuntu20.04.1*%
%TF.CreationDate,2021-06-25T21:15:04-07:00*%
%TF.ProjectId,BACEE,42414345-452e-46b6-9963-61645f706362,1*%
%TF.SameCoordinates,Original*%
%TF.FileFunction,Legend,Top*%
%TF.FilePolarity,Positive*%
%FSLAX46Y46*%
G04 Gerber Fmt 4.6, Leading zero omitted, Abs format (unit mm)*
G04 Created by KiCad (PCBNEW 5.1.10-88a1d61d58~88~ubuntu20.04.1) date 2021-06-25 21:15:04*
%MOMM*%
%LPD*%
G01*
G04 APERTURE LIST*
%ADD10C,0.125000*%
%ADD11C,0.120000*%
%ADD12C,0.150000*%
%ADD13C,0.100000*%
G04 APERTURE END LIST*
D10*
X102396457Y-110368590D02*
X102705980Y-110368590D01*
X102539314Y-110559066D01*
X102610742Y-110559066D01*
X102658361Y-110582876D01*
X102682171Y-110606685D01*
X102705980Y-110654304D01*
X102705980Y-110773352D01*
X102682171Y-110820971D01*
X102658361Y-110844780D01*
X102610742Y-110868590D01*
X102467885Y-110868590D01*
X102420266Y-110844780D01*
X102396457Y-110820971D01*
X102896457Y-110416209D02*
X102920266Y-110392400D01*
X102967885Y-110368590D01*
X103086933Y-110368590D01*
X103134552Y-110392400D01*
X103158361Y-110416209D01*
X103182171Y-110463828D01*
X103182171Y-110511447D01*
X103158361Y-110582876D01*
X102872647Y-110868590D01*
X103182171Y-110868590D01*
X103396457Y-110868590D02*
X103396457Y-110368590D01*
X103682171Y-110868590D02*
X103467885Y-110582876D01*
X103682171Y-110368590D02*
X103396457Y-110654304D01*
X103896457Y-110868590D02*
X103896457Y-110368590D01*
X103896457Y-110606685D02*
X104182171Y-110606685D01*
X104182171Y-110868590D02*
X104182171Y-110368590D01*
X104372647Y-110535257D02*
X104634552Y-110535257D01*
X104372647Y-110868590D01*
X104634552Y-110868590D01*
X105491695Y-110820971D02*
X105467885Y-110844780D01*
X105396457Y-110868590D01*
X105348838Y-110868590D01*
X105277409Y-110844780D01*
X105229790Y-110797161D01*
X105205980Y-110749542D01*
X105182171Y-110654304D01*
X105182171Y-110582876D01*
X105205980Y-110487638D01*
X105229790Y-110440019D01*
X105277409Y-110392400D01*
X105348838Y-110368590D01*
X105396457Y-110368590D01*
X105467885Y-110392400D01*
X105491695Y-110416209D01*
X105705980Y-110868590D02*
X105705980Y-110535257D01*
X105705980Y-110630495D02*
X105729790Y-110582876D01*
X105753600Y-110559066D01*
X105801219Y-110535257D01*
X105848838Y-110535257D01*
X105967885Y-110535257D02*
X106086933Y-110868590D01*
X106205980Y-110535257D02*
X106086933Y-110868590D01*
X106039314Y-110987638D01*
X106015504Y-111011447D01*
X105967885Y-111035257D01*
X106372647Y-110844780D02*
X106420266Y-110868590D01*
X106515504Y-110868590D01*
X106563123Y-110844780D01*
X106586933Y-110797161D01*
X106586933Y-110773352D01*
X106563123Y-110725733D01*
X106515504Y-110701923D01*
X106444076Y-110701923D01*
X106396457Y-110678114D01*
X106372647Y-110630495D01*
X106372647Y-110606685D01*
X106396457Y-110559066D01*
X106444076Y-110535257D01*
X106515504Y-110535257D01*
X106563123Y-110559066D01*
X106729790Y-110535257D02*
X106920266Y-110535257D01*
X106801219Y-110368590D02*
X106801219Y-110797161D01*
X106825028Y-110844780D01*
X106872647Y-110868590D01*
X106920266Y-110868590D01*
X107301219Y-110868590D02*
X107301219Y-110606685D01*
X107277409Y-110559066D01*
X107229790Y-110535257D01*
X107134552Y-110535257D01*
X107086933Y-110559066D01*
X107301219Y-110844780D02*
X107253600Y-110868590D01*
X107134552Y-110868590D01*
X107086933Y-110844780D01*
X107063123Y-110797161D01*
X107063123Y-110749542D01*
X107086933Y-110701923D01*
X107134552Y-110678114D01*
X107253600Y-110678114D01*
X107301219Y-110654304D01*
X107610742Y-110868590D02*
X107563123Y-110844780D01*
X107539314Y-110797161D01*
X107539314Y-110368590D01*
X101508952Y-106829990D02*
X101508952Y-106329990D01*
X101628000Y-106329990D01*
X101699428Y-106353800D01*
X101747047Y-106401419D01*
X101770857Y-106449038D01*
X101794666Y-106544276D01*
X101794666Y-106615704D01*
X101770857Y-106710942D01*
X101747047Y-106758561D01*
X101699428Y-106806180D01*
X101628000Y-106829990D01*
X101508952Y-106829990D01*
X101985142Y-106806180D02*
X102056571Y-106829990D01*
X102175619Y-106829990D01*
X102223238Y-106806180D01*
X102247047Y-106782371D01*
X102270857Y-106734752D01*
X102270857Y-106687133D01*
X102247047Y-106639514D01*
X102223238Y-106615704D01*
X102175619Y-106591895D01*
X102080380Y-106568085D01*
X102032761Y-106544276D01*
X102008952Y-106520466D01*
X101985142Y-106472847D01*
X101985142Y-106425228D01*
X102008952Y-106377609D01*
X102032761Y-106353800D01*
X102080380Y-106329990D01*
X102199428Y-106329990D01*
X102270857Y-106353800D01*
X102747047Y-106829990D02*
X102461333Y-106829990D01*
X102604190Y-106829990D02*
X102604190Y-106329990D01*
X102556571Y-106401419D01*
X102508952Y-106449038D01*
X102461333Y-106472847D01*
X102913714Y-106329990D02*
X103223238Y-106329990D01*
X103056571Y-106520466D01*
X103128000Y-106520466D01*
X103175619Y-106544276D01*
X103199428Y-106568085D01*
X103223238Y-106615704D01*
X103223238Y-106734752D01*
X103199428Y-106782371D01*
X103175619Y-106806180D01*
X103128000Y-106829990D01*
X102985142Y-106829990D01*
X102937523Y-106806180D01*
X102913714Y-106782371D01*
X103389904Y-106329990D02*
X103699428Y-106329990D01*
X103532761Y-106520466D01*
X103604190Y-106520466D01*
X103651809Y-106544276D01*
X103675619Y-106568085D01*
X103699428Y-106615704D01*
X103699428Y-106734752D01*
X103675619Y-106782371D01*
X103651809Y-106806180D01*
X103604190Y-106829990D01*
X103461333Y-106829990D01*
X103413714Y-106806180D01*
X103389904Y-106782371D01*
X103866095Y-106329990D02*
X104199428Y-106329990D01*
X103985142Y-106829990D01*
X104366095Y-106806180D02*
X104437523Y-106829990D01*
X104556571Y-106829990D01*
X104604190Y-106806180D01*
X104628000Y-106782371D01*
X104651809Y-106734752D01*
X104651809Y-106687133D01*
X104628000Y-106639514D01*
X104604190Y-106615704D01*
X104556571Y-106591895D01*
X104461333Y-106568085D01*
X104413714Y-106544276D01*
X104389904Y-106520466D01*
X104366095Y-106472847D01*
X104366095Y-106425228D01*
X104389904Y-106377609D01*
X104413714Y-106353800D01*
X104461333Y-106329990D01*
X104580380Y-106329990D01*
X104651809Y-106353800D01*
X104866095Y-106639514D02*
X105247047Y-106639514D01*
X105056571Y-106829990D02*
X105056571Y-106449038D01*
X98136057Y-101216590D02*
X97850342Y-101216590D01*
X97993200Y-101216590D02*
X97993200Y-100716590D01*
X97945580Y-100788019D01*
X97897961Y-100835638D01*
X97850342Y-100859447D01*
X87391857Y-101114990D02*
X87106142Y-101114990D01*
X87249000Y-101114990D02*
X87249000Y-100614990D01*
X87201380Y-100686419D01*
X87153761Y-100734038D01*
X87106142Y-100757847D01*
X87264857Y-108836590D02*
X86979142Y-108836590D01*
X87122000Y-108836590D02*
X87122000Y-108336590D01*
X87074380Y-108408019D01*
X87026761Y-108455638D01*
X86979142Y-108479447D01*
X74818857Y-107210990D02*
X74533142Y-107210990D01*
X74676000Y-107210990D02*
X74676000Y-106710990D01*
X74628380Y-106782419D01*
X74580761Y-106830038D01*
X74533142Y-106853847D01*
X104802761Y-114503971D02*
X104778952Y-114527780D01*
X104707523Y-114551590D01*
X104659904Y-114551590D01*
X104588476Y-114527780D01*
X104540857Y-114480161D01*
X104517047Y-114432542D01*
X104493238Y-114337304D01*
X104493238Y-114265876D01*
X104517047Y-114170638D01*
X104540857Y-114123019D01*
X104588476Y-114075400D01*
X104659904Y-114051590D01*
X104707523Y-114051590D01*
X104778952Y-114075400D01*
X104802761Y-114099209D01*
X106510971Y-111732190D02*
X106272876Y-111732190D01*
X106272876Y-111232190D01*
X106677638Y-111470285D02*
X106844304Y-111470285D01*
X106915733Y-111732190D02*
X106677638Y-111732190D01*
X106677638Y-111232190D01*
X106915733Y-111232190D01*
X107130019Y-111732190D02*
X107130019Y-111232190D01*
X107249066Y-111232190D01*
X107320495Y-111256000D01*
X107368114Y-111303619D01*
X107391923Y-111351238D01*
X107415733Y-111446476D01*
X107415733Y-111517904D01*
X107391923Y-111613142D01*
X107368114Y-111660761D01*
X107320495Y-111708380D01*
X107249066Y-111732190D01*
X107130019Y-111732190D01*
X99136295Y-110893990D02*
X98850580Y-110893990D01*
X98993438Y-110893990D02*
X98993438Y-110393990D01*
X98945819Y-110465419D01*
X98898200Y-110513038D01*
X98850580Y-110536847D01*
X99445819Y-110393990D02*
X99493438Y-110393990D01*
X99541057Y-110417800D01*
X99564866Y-110441609D01*
X99588676Y-110489228D01*
X99612485Y-110584466D01*
X99612485Y-110703514D01*
X99588676Y-110798752D01*
X99564866Y-110846371D01*
X99541057Y-110870180D01*
X99493438Y-110893990D01*
X99445819Y-110893990D01*
X99398200Y-110870180D01*
X99374390Y-110846371D01*
X99350580Y-110798752D01*
X99326771Y-110703514D01*
X99326771Y-110584466D01*
X99350580Y-110489228D01*
X99374390Y-110441609D01*
X99398200Y-110417800D01*
X99445819Y-110393990D01*
X100207723Y-110560657D02*
X100207723Y-111060657D01*
X100445819Y-110822561D02*
X100469628Y-110870180D01*
X100517247Y-110893990D01*
X100207723Y-110822561D02*
X100231533Y-110870180D01*
X100279152Y-110893990D01*
X100374390Y-110893990D01*
X100422009Y-110870180D01*
X100445819Y-110822561D01*
X100445819Y-110560657D01*
X100898200Y-110632085D02*
X100731533Y-110632085D01*
X100731533Y-110893990D02*
X100731533Y-110393990D01*
X100969628Y-110393990D01*
X99058552Y-113949990D02*
X99368076Y-113949990D01*
X99201409Y-114140466D01*
X99272838Y-114140466D01*
X99320457Y-114164276D01*
X99344266Y-114188085D01*
X99368076Y-114235704D01*
X99368076Y-114354752D01*
X99344266Y-114402371D01*
X99320457Y-114426180D01*
X99272838Y-114449990D01*
X99129980Y-114449990D01*
X99082361Y-114426180D01*
X99058552Y-114402371D01*
X99534742Y-113949990D02*
X99844266Y-113949990D01*
X99677600Y-114140466D01*
X99749028Y-114140466D01*
X99796647Y-114164276D01*
X99820457Y-114188085D01*
X99844266Y-114235704D01*
X99844266Y-114354752D01*
X99820457Y-114402371D01*
X99796647Y-114426180D01*
X99749028Y-114449990D01*
X99606171Y-114449990D01*
X99558552Y-114426180D01*
X99534742Y-114402371D01*
X100153790Y-113949990D02*
X100201409Y-113949990D01*
X100249028Y-113973800D01*
X100272838Y-113997609D01*
X100296647Y-114045228D01*
X100320457Y-114140466D01*
X100320457Y-114259514D01*
X100296647Y-114354752D01*
X100272838Y-114402371D01*
X100249028Y-114426180D01*
X100201409Y-114449990D01*
X100153790Y-114449990D01*
X100106171Y-114426180D01*
X100082361Y-114402371D01*
X100058552Y-114354752D01*
X100034742Y-114259514D01*
X100034742Y-114140466D01*
X100058552Y-114045228D01*
X100082361Y-113997609D01*
X100106171Y-113973800D01*
X100153790Y-113949990D01*
X100891885Y-114449990D02*
X101010933Y-114449990D01*
X101010933Y-114354752D01*
X100963314Y-114330942D01*
X100915695Y-114283323D01*
X100891885Y-114211895D01*
X100891885Y-114092847D01*
X100915695Y-114021419D01*
X100963314Y-113973800D01*
X101034742Y-113949990D01*
X101129980Y-113949990D01*
X101201409Y-113973800D01*
X101249028Y-114021419D01*
X101272838Y-114092847D01*
X101272838Y-114211895D01*
X101249028Y-114283323D01*
X101201409Y-114330942D01*
X101153790Y-114354752D01*
X101153790Y-114449990D01*
X101272838Y-114449990D01*
X97942447Y-115040600D02*
X97894828Y-115016790D01*
X97823400Y-115016790D01*
X97751971Y-115040600D01*
X97704352Y-115088219D01*
X97680542Y-115135838D01*
X97656733Y-115231076D01*
X97656733Y-115302504D01*
X97680542Y-115397742D01*
X97704352Y-115445361D01*
X97751971Y-115492980D01*
X97823400Y-115516790D01*
X97871019Y-115516790D01*
X97942447Y-115492980D01*
X97966257Y-115469171D01*
X97966257Y-115302504D01*
X97871019Y-115302504D01*
X98180542Y-115516790D02*
X98180542Y-115016790D01*
X98466257Y-115516790D01*
X98466257Y-115016790D01*
X98704352Y-115516790D02*
X98704352Y-115016790D01*
X98823400Y-115016790D01*
X98894828Y-115040600D01*
X98942447Y-115088219D01*
X98966257Y-115135838D01*
X98990066Y-115231076D01*
X98990066Y-115302504D01*
X98966257Y-115397742D01*
X98942447Y-115445361D01*
X98894828Y-115492980D01*
X98823400Y-115516790D01*
X98704352Y-115516790D01*
X92823552Y-115516790D02*
X92823552Y-115016790D01*
X92942600Y-115016790D01*
X93014028Y-115040600D01*
X93061647Y-115088219D01*
X93085457Y-115135838D01*
X93109266Y-115231076D01*
X93109266Y-115302504D01*
X93085457Y-115397742D01*
X93061647Y-115445361D01*
X93014028Y-115492980D01*
X92942600Y-115516790D01*
X92823552Y-115516790D01*
X93275933Y-115016790D02*
X93609266Y-115016790D01*
X93394980Y-115516790D01*
X100191961Y-115016790D02*
X100358628Y-115516790D01*
X100525295Y-115016790D01*
X100906247Y-115492980D02*
X100858628Y-115516790D01*
X100763390Y-115516790D01*
X100715771Y-115492980D01*
X100691961Y-115469171D01*
X100668152Y-115421552D01*
X100668152Y-115278695D01*
X100691961Y-115231076D01*
X100715771Y-115207266D01*
X100763390Y-115183457D01*
X100858628Y-115183457D01*
X100906247Y-115207266D01*
X101334819Y-115492980D02*
X101287200Y-115516790D01*
X101191961Y-115516790D01*
X101144342Y-115492980D01*
X101120533Y-115469171D01*
X101096723Y-115421552D01*
X101096723Y-115278695D01*
X101120533Y-115231076D01*
X101144342Y-115207266D01*
X101191961Y-115183457D01*
X101287200Y-115183457D01*
X101334819Y-115207266D01*
X95338152Y-115516790D02*
X95338152Y-115016790D01*
X95457200Y-115016790D01*
X95528628Y-115040600D01*
X95576247Y-115088219D01*
X95600057Y-115135838D01*
X95623866Y-115231076D01*
X95623866Y-115302504D01*
X95600057Y-115397742D01*
X95576247Y-115445361D01*
X95528628Y-115492980D01*
X95457200Y-115516790D01*
X95338152Y-115516790D01*
X95909580Y-115231076D02*
X95861961Y-115207266D01*
X95838152Y-115183457D01*
X95814342Y-115135838D01*
X95814342Y-115112028D01*
X95838152Y-115064409D01*
X95861961Y-115040600D01*
X95909580Y-115016790D01*
X96004819Y-115016790D01*
X96052438Y-115040600D01*
X96076247Y-115064409D01*
X96100057Y-115112028D01*
X96100057Y-115135838D01*
X96076247Y-115183457D01*
X96052438Y-115207266D01*
X96004819Y-115231076D01*
X95909580Y-115231076D01*
X95861961Y-115254885D01*
X95838152Y-115278695D01*
X95814342Y-115326314D01*
X95814342Y-115421552D01*
X95838152Y-115469171D01*
X95861961Y-115492980D01*
X95909580Y-115516790D01*
X96004819Y-115516790D01*
X96052438Y-115492980D01*
X96076247Y-115469171D01*
X96100057Y-115421552D01*
X96100057Y-115326314D01*
X96076247Y-115278695D01*
X96052438Y-115254885D01*
X96004819Y-115231076D01*
X90283552Y-115516790D02*
X90283552Y-115016790D01*
X90402600Y-115016790D01*
X90474028Y-115040600D01*
X90521647Y-115088219D01*
X90545457Y-115135838D01*
X90569266Y-115231076D01*
X90569266Y-115302504D01*
X90545457Y-115397742D01*
X90521647Y-115445361D01*
X90474028Y-115492980D01*
X90402600Y-115516790D01*
X90283552Y-115516790D01*
X90997838Y-115016790D02*
X90902600Y-115016790D01*
X90854980Y-115040600D01*
X90831171Y-115064409D01*
X90783552Y-115135838D01*
X90759742Y-115231076D01*
X90759742Y-115421552D01*
X90783552Y-115469171D01*
X90807361Y-115492980D01*
X90854980Y-115516790D01*
X90950219Y-115516790D01*
X90997838Y-115492980D01*
X91021647Y-115469171D01*
X91045457Y-115421552D01*
X91045457Y-115302504D01*
X91021647Y-115254885D01*
X90997838Y-115231076D01*
X90950219Y-115207266D01*
X90854980Y-115207266D01*
X90807361Y-115231076D01*
X90783552Y-115254885D01*
X90759742Y-115302504D01*
X87819752Y-115516790D02*
X87819752Y-115016790D01*
X87938800Y-115016790D01*
X88010228Y-115040600D01*
X88057847Y-115088219D01*
X88081657Y-115135838D01*
X88105466Y-115231076D01*
X88105466Y-115302504D01*
X88081657Y-115397742D01*
X88057847Y-115445361D01*
X88010228Y-115492980D01*
X87938800Y-115516790D01*
X87819752Y-115516790D01*
X88557847Y-115016790D02*
X88319752Y-115016790D01*
X88295942Y-115254885D01*
X88319752Y-115231076D01*
X88367371Y-115207266D01*
X88486419Y-115207266D01*
X88534038Y-115231076D01*
X88557847Y-115254885D01*
X88581657Y-115302504D01*
X88581657Y-115421552D01*
X88557847Y-115469171D01*
X88534038Y-115492980D01*
X88486419Y-115516790D01*
X88367371Y-115516790D01*
X88319752Y-115492980D01*
X88295942Y-115469171D01*
X85203552Y-115516790D02*
X85203552Y-115016790D01*
X85322600Y-115016790D01*
X85394028Y-115040600D01*
X85441647Y-115088219D01*
X85465457Y-115135838D01*
X85489266Y-115231076D01*
X85489266Y-115302504D01*
X85465457Y-115397742D01*
X85441647Y-115445361D01*
X85394028Y-115492980D01*
X85322600Y-115516790D01*
X85203552Y-115516790D01*
X85917838Y-115183457D02*
X85917838Y-115516790D01*
X85798790Y-114992980D02*
X85679742Y-115350123D01*
X85989266Y-115350123D01*
X82688952Y-115516790D02*
X82688952Y-115016790D01*
X82808000Y-115016790D01*
X82879428Y-115040600D01*
X82927047Y-115088219D01*
X82950857Y-115135838D01*
X82974666Y-115231076D01*
X82974666Y-115302504D01*
X82950857Y-115397742D01*
X82927047Y-115445361D01*
X82879428Y-115492980D01*
X82808000Y-115516790D01*
X82688952Y-115516790D01*
X83141333Y-115016790D02*
X83450857Y-115016790D01*
X83284190Y-115207266D01*
X83355619Y-115207266D01*
X83403238Y-115231076D01*
X83427047Y-115254885D01*
X83450857Y-115302504D01*
X83450857Y-115421552D01*
X83427047Y-115469171D01*
X83403238Y-115492980D01*
X83355619Y-115516790D01*
X83212761Y-115516790D01*
X83165142Y-115492980D01*
X83141333Y-115469171D01*
X80199752Y-115516790D02*
X80199752Y-115016790D01*
X80318800Y-115016790D01*
X80390228Y-115040600D01*
X80437847Y-115088219D01*
X80461657Y-115135838D01*
X80485466Y-115231076D01*
X80485466Y-115302504D01*
X80461657Y-115397742D01*
X80437847Y-115445361D01*
X80390228Y-115492980D01*
X80318800Y-115516790D01*
X80199752Y-115516790D01*
X80675942Y-115064409D02*
X80699752Y-115040600D01*
X80747371Y-115016790D01*
X80866419Y-115016790D01*
X80914038Y-115040600D01*
X80937847Y-115064409D01*
X80961657Y-115112028D01*
X80961657Y-115159647D01*
X80937847Y-115231076D01*
X80652133Y-115516790D01*
X80961657Y-115516790D01*
X90619485Y-113540409D02*
X90643295Y-113516600D01*
X90690914Y-113492790D01*
X90809961Y-113492790D01*
X90857580Y-113516600D01*
X90881390Y-113540409D01*
X90905200Y-113588028D01*
X90905200Y-113635647D01*
X90881390Y-113707076D01*
X90595676Y-113992790D01*
X90905200Y-113992790D01*
X91333771Y-113659457D02*
X91333771Y-113992790D01*
X91214723Y-113468980D02*
X91095676Y-113826123D01*
X91405200Y-113826123D01*
X91833771Y-113992790D02*
X91595676Y-113992790D01*
X91595676Y-113492790D01*
X92286152Y-113945171D02*
X92262342Y-113968980D01*
X92190914Y-113992790D01*
X92143295Y-113992790D01*
X92071866Y-113968980D01*
X92024247Y-113921361D01*
X92000438Y-113873742D01*
X91976628Y-113778504D01*
X91976628Y-113707076D01*
X92000438Y-113611838D01*
X92024247Y-113564219D01*
X92071866Y-113516600D01*
X92143295Y-113492790D01*
X92190914Y-113492790D01*
X92262342Y-113516600D01*
X92286152Y-113540409D01*
X92762342Y-113992790D02*
X92476628Y-113992790D01*
X92619485Y-113992790D02*
X92619485Y-113492790D01*
X92571866Y-113564219D01*
X92524247Y-113611838D01*
X92476628Y-113635647D01*
X93071866Y-113492790D02*
X93119485Y-113492790D01*
X93167104Y-113516600D01*
X93190914Y-113540409D01*
X93214723Y-113588028D01*
X93238533Y-113683266D01*
X93238533Y-113802314D01*
X93214723Y-113897552D01*
X93190914Y-113945171D01*
X93167104Y-113968980D01*
X93119485Y-113992790D01*
X93071866Y-113992790D01*
X93024247Y-113968980D01*
X93000438Y-113945171D01*
X92976628Y-113897552D01*
X92952819Y-113802314D01*
X92952819Y-113683266D01*
X92976628Y-113588028D01*
X93000438Y-113540409D01*
X93024247Y-113516600D01*
X93071866Y-113492790D01*
X93429009Y-113540409D02*
X93452819Y-113516600D01*
X93500438Y-113492790D01*
X93619485Y-113492790D01*
X93667104Y-113516600D01*
X93690914Y-113540409D01*
X93714723Y-113588028D01*
X93714723Y-113635647D01*
X93690914Y-113707076D01*
X93405200Y-113992790D01*
X93714723Y-113992790D01*
X94167104Y-113492790D02*
X93929009Y-113492790D01*
X93905200Y-113730885D01*
X93929009Y-113707076D01*
X93976628Y-113683266D01*
X94095676Y-113683266D01*
X94143295Y-113707076D01*
X94167104Y-113730885D01*
X94190914Y-113778504D01*
X94190914Y-113897552D01*
X94167104Y-113945171D01*
X94143295Y-113968980D01*
X94095676Y-113992790D01*
X93976628Y-113992790D01*
X93929009Y-113968980D01*
X93905200Y-113945171D01*
X90568685Y-105920409D02*
X90592495Y-105896600D01*
X90640114Y-105872790D01*
X90759161Y-105872790D01*
X90806780Y-105896600D01*
X90830590Y-105920409D01*
X90854400Y-105968028D01*
X90854400Y-106015647D01*
X90830590Y-106087076D01*
X90544876Y-106372790D01*
X90854400Y-106372790D01*
X91282971Y-106039457D02*
X91282971Y-106372790D01*
X91163923Y-105848980D02*
X91044876Y-106206123D01*
X91354400Y-106206123D01*
X91782971Y-106372790D02*
X91544876Y-106372790D01*
X91544876Y-105872790D01*
X92235352Y-106325171D02*
X92211542Y-106348980D01*
X92140114Y-106372790D01*
X92092495Y-106372790D01*
X92021066Y-106348980D01*
X91973447Y-106301361D01*
X91949638Y-106253742D01*
X91925828Y-106158504D01*
X91925828Y-106087076D01*
X91949638Y-105991838D01*
X91973447Y-105944219D01*
X92021066Y-105896600D01*
X92092495Y-105872790D01*
X92140114Y-105872790D01*
X92211542Y-105896600D01*
X92235352Y-105920409D01*
X92711542Y-106372790D02*
X92425828Y-106372790D01*
X92568685Y-106372790D02*
X92568685Y-105872790D01*
X92521066Y-105944219D01*
X92473447Y-105991838D01*
X92425828Y-106015647D01*
X93021066Y-105872790D02*
X93068685Y-105872790D01*
X93116304Y-105896600D01*
X93140114Y-105920409D01*
X93163923Y-105968028D01*
X93187733Y-106063266D01*
X93187733Y-106182314D01*
X93163923Y-106277552D01*
X93140114Y-106325171D01*
X93116304Y-106348980D01*
X93068685Y-106372790D01*
X93021066Y-106372790D01*
X92973447Y-106348980D01*
X92949638Y-106325171D01*
X92925828Y-106277552D01*
X92902019Y-106182314D01*
X92902019Y-106063266D01*
X92925828Y-105968028D01*
X92949638Y-105920409D01*
X92973447Y-105896600D01*
X93021066Y-105872790D01*
X93378209Y-105920409D02*
X93402019Y-105896600D01*
X93449638Y-105872790D01*
X93568685Y-105872790D01*
X93616304Y-105896600D01*
X93640114Y-105920409D01*
X93663923Y-105968028D01*
X93663923Y-106015647D01*
X93640114Y-106087076D01*
X93354400Y-106372790D01*
X93663923Y-106372790D01*
X94116304Y-105872790D02*
X93878209Y-105872790D01*
X93854400Y-106110885D01*
X93878209Y-106087076D01*
X93925828Y-106063266D01*
X94044876Y-106063266D01*
X94092495Y-106087076D01*
X94116304Y-106110885D01*
X94140114Y-106158504D01*
X94140114Y-106277552D01*
X94116304Y-106325171D01*
X94092495Y-106348980D01*
X94044876Y-106372790D01*
X93925828Y-106372790D01*
X93878209Y-106348980D01*
X93854400Y-106325171D01*
X89686580Y-97609695D02*
X89710390Y-97538266D01*
X89710390Y-97419219D01*
X89686580Y-97371600D01*
X89662771Y-97347790D01*
X89615152Y-97323980D01*
X89567533Y-97323980D01*
X89519914Y-97347790D01*
X89496104Y-97371600D01*
X89472295Y-97419219D01*
X89448485Y-97514457D01*
X89424676Y-97562076D01*
X89400866Y-97585885D01*
X89353247Y-97609695D01*
X89305628Y-97609695D01*
X89258009Y-97585885D01*
X89234200Y-97562076D01*
X89210390Y-97514457D01*
X89210390Y-97395409D01*
X89234200Y-97323980D01*
X89686580Y-96919219D02*
X89710390Y-96966838D01*
X89710390Y-97062076D01*
X89686580Y-97109695D01*
X89638961Y-97133504D01*
X89448485Y-97133504D01*
X89400866Y-97109695D01*
X89377057Y-97062076D01*
X89377057Y-96966838D01*
X89400866Y-96919219D01*
X89448485Y-96895409D01*
X89496104Y-96895409D01*
X89543723Y-97133504D01*
X89710390Y-96681123D02*
X89377057Y-96681123D01*
X89472295Y-96681123D02*
X89424676Y-96657314D01*
X89400866Y-96633504D01*
X89377057Y-96585885D01*
X89377057Y-96538266D01*
X89710390Y-96371600D02*
X89377057Y-96371600D01*
X89210390Y-96371600D02*
X89234200Y-96395409D01*
X89258009Y-96371600D01*
X89234200Y-96347790D01*
X89210390Y-96371600D01*
X89258009Y-96371600D01*
X89710390Y-95919219D02*
X89448485Y-95919219D01*
X89400866Y-95943028D01*
X89377057Y-95990647D01*
X89377057Y-96085885D01*
X89400866Y-96133504D01*
X89686580Y-95919219D02*
X89710390Y-95966838D01*
X89710390Y-96085885D01*
X89686580Y-96133504D01*
X89638961Y-96157314D01*
X89591342Y-96157314D01*
X89543723Y-96133504D01*
X89519914Y-96085885D01*
X89519914Y-95966838D01*
X89496104Y-95919219D01*
X89710390Y-95609695D02*
X89686580Y-95657314D01*
X89638961Y-95681123D01*
X89210390Y-95681123D01*
X99861761Y-98601980D02*
X99933190Y-98625790D01*
X100052238Y-98625790D01*
X100099857Y-98601980D01*
X100123666Y-98578171D01*
X100147476Y-98530552D01*
X100147476Y-98482933D01*
X100123666Y-98435314D01*
X100099857Y-98411504D01*
X100052238Y-98387695D01*
X99957000Y-98363885D01*
X99909380Y-98340076D01*
X99885571Y-98316266D01*
X99861761Y-98268647D01*
X99861761Y-98221028D01*
X99885571Y-98173409D01*
X99909380Y-98149600D01*
X99957000Y-98125790D01*
X100076047Y-98125790D01*
X100147476Y-98149600D01*
X100647476Y-98578171D02*
X100623666Y-98601980D01*
X100552238Y-98625790D01*
X100504619Y-98625790D01*
X100433190Y-98601980D01*
X100385571Y-98554361D01*
X100361761Y-98506742D01*
X100337952Y-98411504D01*
X100337952Y-98340076D01*
X100361761Y-98244838D01*
X100385571Y-98197219D01*
X100433190Y-98149600D01*
X100504619Y-98125790D01*
X100552238Y-98125790D01*
X100623666Y-98149600D01*
X100647476Y-98173409D01*
X101099857Y-98625790D02*
X100861761Y-98625790D01*
X100861761Y-98125790D01*
X97250589Y-98601980D02*
X97322017Y-98625790D01*
X97441065Y-98625790D01*
X97488684Y-98601980D01*
X97512493Y-98578171D01*
X97536303Y-98530552D01*
X97536303Y-98482933D01*
X97512493Y-98435314D01*
X97488684Y-98411504D01*
X97441065Y-98387695D01*
X97345827Y-98363885D01*
X97298208Y-98340076D01*
X97274398Y-98316266D01*
X97250589Y-98268647D01*
X97250589Y-98221028D01*
X97274398Y-98173409D01*
X97298208Y-98149600D01*
X97345827Y-98125790D01*
X97464874Y-98125790D01*
X97536303Y-98149600D01*
X97750589Y-98625790D02*
X97750589Y-98125790D01*
X97869636Y-98125790D01*
X97941065Y-98149600D01*
X97988684Y-98197219D01*
X98012493Y-98244838D01*
X98036303Y-98340076D01*
X98036303Y-98411504D01*
X98012493Y-98506742D01*
X97988684Y-98554361D01*
X97941065Y-98601980D01*
X97869636Y-98625790D01*
X97750589Y-98625790D01*
X98226779Y-98482933D02*
X98464874Y-98482933D01*
X98179160Y-98625790D02*
X98345827Y-98125790D01*
X98512493Y-98625790D01*
X94663227Y-98125790D02*
X94829894Y-98625790D01*
X94996561Y-98125790D01*
X95377513Y-98601980D02*
X95329894Y-98625790D01*
X95234656Y-98625790D01*
X95187037Y-98601980D01*
X95163227Y-98578171D01*
X95139418Y-98530552D01*
X95139418Y-98387695D01*
X95163227Y-98340076D01*
X95187037Y-98316266D01*
X95234656Y-98292457D01*
X95329894Y-98292457D01*
X95377513Y-98316266D01*
X95806085Y-98601980D02*
X95758466Y-98625790D01*
X95663227Y-98625790D01*
X95615608Y-98601980D01*
X95591799Y-98578171D01*
X95567989Y-98530552D01*
X95567989Y-98387695D01*
X95591799Y-98340076D01*
X95615608Y-98316266D01*
X95663227Y-98292457D01*
X95758466Y-98292457D01*
X95806085Y-98316266D01*
X92278247Y-98149600D02*
X92230628Y-98125790D01*
X92159200Y-98125790D01*
X92087771Y-98149600D01*
X92040152Y-98197219D01*
X92016342Y-98244838D01*
X91992533Y-98340076D01*
X91992533Y-98411504D01*
X92016342Y-98506742D01*
X92040152Y-98554361D01*
X92087771Y-98601980D01*
X92159200Y-98625790D01*
X92206819Y-98625790D01*
X92278247Y-98601980D01*
X92302057Y-98578171D01*
X92302057Y-98411504D01*
X92206819Y-98411504D01*
X92516342Y-98625790D02*
X92516342Y-98125790D01*
X92802057Y-98625790D01*
X92802057Y-98125790D01*
X93040152Y-98625790D02*
X93040152Y-98125790D01*
X93159200Y-98125790D01*
X93230628Y-98149600D01*
X93278247Y-98197219D01*
X93302057Y-98244838D01*
X93325866Y-98340076D01*
X93325866Y-98411504D01*
X93302057Y-98506742D01*
X93278247Y-98554361D01*
X93230628Y-98601980D01*
X93159200Y-98625790D01*
X93040152Y-98625790D01*
X102435790Y-96957295D02*
X101935790Y-96957295D01*
X101983409Y-96743009D02*
X101959600Y-96719200D01*
X101935790Y-96671580D01*
X101935790Y-96552533D01*
X101959600Y-96504914D01*
X101983409Y-96481104D01*
X102031028Y-96457295D01*
X102078647Y-96457295D01*
X102150076Y-96481104D01*
X102435790Y-96766819D01*
X102435790Y-96457295D01*
X102388171Y-95957295D02*
X102411980Y-95981104D01*
X102435790Y-96052533D01*
X102435790Y-96100152D01*
X102411980Y-96171580D01*
X102364361Y-96219200D01*
X102316742Y-96243009D01*
X102221504Y-96266819D01*
X102150076Y-96266819D01*
X102054838Y-96243009D01*
X102007219Y-96219200D01*
X101959600Y-96171580D01*
X101935790Y-96100152D01*
X101935790Y-96052533D01*
X101959600Y-95981104D01*
X101983409Y-95957295D01*
X83874895Y-103964609D02*
X83898704Y-103940800D01*
X83946323Y-103916990D01*
X84065371Y-103916990D01*
X84112990Y-103940800D01*
X84136800Y-103964609D01*
X84160609Y-104012228D01*
X84160609Y-104059847D01*
X84136800Y-104131276D01*
X83851085Y-104416990D01*
X84160609Y-104416990D01*
X84351085Y-103964609D02*
X84374895Y-103940800D01*
X84422514Y-103916990D01*
X84541561Y-103916990D01*
X84589180Y-103940800D01*
X84612990Y-103964609D01*
X84636800Y-104012228D01*
X84636800Y-104059847D01*
X84612990Y-104131276D01*
X84327276Y-104416990D01*
X84636800Y-104416990D01*
X85232038Y-104083657D02*
X85232038Y-104583657D01*
X85232038Y-104107466D02*
X85279657Y-104083657D01*
X85374895Y-104083657D01*
X85422514Y-104107466D01*
X85446323Y-104131276D01*
X85470133Y-104178895D01*
X85470133Y-104321752D01*
X85446323Y-104369371D01*
X85422514Y-104393180D01*
X85374895Y-104416990D01*
X85279657Y-104416990D01*
X85232038Y-104393180D01*
X85851085Y-104155085D02*
X85684419Y-104155085D01*
X85684419Y-104416990D02*
X85684419Y-103916990D01*
X85922514Y-103916990D01*
X83849495Y-101069009D02*
X83873304Y-101045200D01*
X83920923Y-101021390D01*
X84039971Y-101021390D01*
X84087590Y-101045200D01*
X84111400Y-101069009D01*
X84135209Y-101116628D01*
X84135209Y-101164247D01*
X84111400Y-101235676D01*
X83825685Y-101521390D01*
X84135209Y-101521390D01*
X84325685Y-101069009D02*
X84349495Y-101045200D01*
X84397114Y-101021390D01*
X84516161Y-101021390D01*
X84563780Y-101045200D01*
X84587590Y-101069009D01*
X84611400Y-101116628D01*
X84611400Y-101164247D01*
X84587590Y-101235676D01*
X84301876Y-101521390D01*
X84611400Y-101521390D01*
X85206638Y-101188057D02*
X85206638Y-101688057D01*
X85206638Y-101211866D02*
X85254257Y-101188057D01*
X85349495Y-101188057D01*
X85397114Y-101211866D01*
X85420923Y-101235676D01*
X85444733Y-101283295D01*
X85444733Y-101426152D01*
X85420923Y-101473771D01*
X85397114Y-101497580D01*
X85349495Y-101521390D01*
X85254257Y-101521390D01*
X85206638Y-101497580D01*
X85825685Y-101259485D02*
X85659019Y-101259485D01*
X85659019Y-101521390D02*
X85659019Y-101021390D01*
X85897114Y-101021390D01*
X87249047Y-98074990D02*
X87534761Y-98074990D01*
X87391904Y-98574990D02*
X87391904Y-98074990D01*
X87653809Y-98074990D02*
X87987142Y-98574990D01*
X87987142Y-98074990D02*
X87653809Y-98574990D01*
X85006666Y-98574990D02*
X84840000Y-98336895D01*
X84720952Y-98574990D02*
X84720952Y-98074990D01*
X84911428Y-98074990D01*
X84959047Y-98098800D01*
X84982857Y-98122609D01*
X85006666Y-98170228D01*
X85006666Y-98241657D01*
X84982857Y-98289276D01*
X84959047Y-98313085D01*
X84911428Y-98336895D01*
X84720952Y-98336895D01*
X85173333Y-98074990D02*
X85506666Y-98574990D01*
X85506666Y-98074990D02*
X85173333Y-98574990D01*
X81903961Y-98074990D02*
X82070628Y-98574990D01*
X82237295Y-98074990D01*
X82618247Y-98551180D02*
X82570628Y-98574990D01*
X82475390Y-98574990D01*
X82427771Y-98551180D01*
X82403961Y-98527371D01*
X82380152Y-98479752D01*
X82380152Y-98336895D01*
X82403961Y-98289276D01*
X82427771Y-98265466D01*
X82475390Y-98241657D01*
X82570628Y-98241657D01*
X82618247Y-98265466D01*
X83046819Y-98551180D02*
X82999200Y-98574990D01*
X82903961Y-98574990D01*
X82856342Y-98551180D01*
X82832533Y-98527371D01*
X82808723Y-98479752D01*
X82808723Y-98336895D01*
X82832533Y-98289276D01*
X82856342Y-98265466D01*
X82903961Y-98241657D01*
X82999200Y-98241657D01*
X83046819Y-98265466D01*
X79476647Y-98149600D02*
X79429028Y-98125790D01*
X79357600Y-98125790D01*
X79286171Y-98149600D01*
X79238552Y-98197219D01*
X79214742Y-98244838D01*
X79190933Y-98340076D01*
X79190933Y-98411504D01*
X79214742Y-98506742D01*
X79238552Y-98554361D01*
X79286171Y-98601980D01*
X79357600Y-98625790D01*
X79405219Y-98625790D01*
X79476647Y-98601980D01*
X79500457Y-98578171D01*
X79500457Y-98411504D01*
X79405219Y-98411504D01*
X79714742Y-98625790D02*
X79714742Y-98125790D01*
X80000457Y-98625790D01*
X80000457Y-98125790D01*
X80238552Y-98625790D02*
X80238552Y-98125790D01*
X80357600Y-98125790D01*
X80429028Y-98149600D01*
X80476647Y-98197219D01*
X80500457Y-98244838D01*
X80524266Y-98340076D01*
X80524266Y-98411504D01*
X80500457Y-98506742D01*
X80476647Y-98554361D01*
X80429028Y-98601980D01*
X80357600Y-98625790D01*
X80238552Y-98625790D01*
X73479790Y-108786514D02*
X72979790Y-108786514D01*
X73336933Y-108619847D01*
X72979790Y-108453180D01*
X73479790Y-108453180D01*
X73479790Y-108215085D02*
X72979790Y-108215085D01*
X73455980Y-108000800D02*
X73479790Y-107929371D01*
X73479790Y-107810323D01*
X73455980Y-107762704D01*
X73432171Y-107738895D01*
X73384552Y-107715085D01*
X73336933Y-107715085D01*
X73289314Y-107738895D01*
X73265504Y-107762704D01*
X73241695Y-107810323D01*
X73217885Y-107905561D01*
X73194076Y-107953180D01*
X73170266Y-107976990D01*
X73122647Y-108000800D01*
X73075028Y-108000800D01*
X73027409Y-107976990D01*
X73003600Y-107953180D01*
X72979790Y-107905561D01*
X72979790Y-107786514D01*
X73003600Y-107715085D01*
X72979790Y-107405561D02*
X72979790Y-107310323D01*
X73003600Y-107262704D01*
X73051219Y-107215085D01*
X73146457Y-107191276D01*
X73313123Y-107191276D01*
X73408361Y-107215085D01*
X73455980Y-107262704D01*
X73479790Y-107310323D01*
X73479790Y-107405561D01*
X73455980Y-107453180D01*
X73408361Y-107500800D01*
X73313123Y-107524609D01*
X73146457Y-107524609D01*
X73051219Y-107500800D01*
X73003600Y-107453180D01*
X72979790Y-107405561D01*
X73455980Y-111186838D02*
X73479790Y-111115409D01*
X73479790Y-110996361D01*
X73455980Y-110948742D01*
X73432171Y-110924933D01*
X73384552Y-110901123D01*
X73336933Y-110901123D01*
X73289314Y-110924933D01*
X73265504Y-110948742D01*
X73241695Y-110996361D01*
X73217885Y-111091600D01*
X73194076Y-111139219D01*
X73170266Y-111163028D01*
X73122647Y-111186838D01*
X73075028Y-111186838D01*
X73027409Y-111163028D01*
X73003600Y-111139219D01*
X72979790Y-111091600D01*
X72979790Y-110972552D01*
X73003600Y-110901123D01*
X73432171Y-110401123D02*
X73455980Y-110424933D01*
X73479790Y-110496361D01*
X73479790Y-110543980D01*
X73455980Y-110615409D01*
X73408361Y-110663028D01*
X73360742Y-110686838D01*
X73265504Y-110710647D01*
X73194076Y-110710647D01*
X73098838Y-110686838D01*
X73051219Y-110663028D01*
X73003600Y-110615409D01*
X72979790Y-110543980D01*
X72979790Y-110496361D01*
X73003600Y-110424933D01*
X73027409Y-110401123D01*
X73479790Y-109948742D02*
X73479790Y-110186838D01*
X72979790Y-110186838D01*
X73479790Y-113908590D02*
X73241695Y-114075257D01*
X73479790Y-114194304D02*
X72979790Y-114194304D01*
X72979790Y-114003828D01*
X73003600Y-113956209D01*
X73027409Y-113932400D01*
X73075028Y-113908590D01*
X73146457Y-113908590D01*
X73194076Y-113932400D01*
X73217885Y-113956209D01*
X73241695Y-114003828D01*
X73241695Y-114194304D01*
X73217885Y-113694304D02*
X73217885Y-113527638D01*
X73479790Y-113456209D02*
X73479790Y-113694304D01*
X72979790Y-113694304D01*
X72979790Y-113456209D01*
X73455980Y-113265733D02*
X73479790Y-113194304D01*
X73479790Y-113075257D01*
X73455980Y-113027638D01*
X73432171Y-113003828D01*
X73384552Y-112980019D01*
X73336933Y-112980019D01*
X73289314Y-113003828D01*
X73265504Y-113027638D01*
X73241695Y-113075257D01*
X73217885Y-113170495D01*
X73194076Y-113218114D01*
X73170266Y-113241923D01*
X73122647Y-113265733D01*
X73075028Y-113265733D01*
X73027409Y-113241923D01*
X73003600Y-113218114D01*
X72979790Y-113170495D01*
X72979790Y-113051447D01*
X73003600Y-112980019D01*
X73217885Y-112765733D02*
X73217885Y-112599066D01*
X73479790Y-112527638D02*
X73479790Y-112765733D01*
X72979790Y-112765733D01*
X72979790Y-112527638D01*
X72979790Y-112384780D02*
X72979790Y-112099066D01*
X73479790Y-112241923D02*
X72979790Y-112241923D01*
X67009200Y-113664952D02*
X66985390Y-113712571D01*
X66985390Y-113784000D01*
X67009200Y-113855428D01*
X67056819Y-113903047D01*
X67104438Y-113926857D01*
X67199676Y-113950666D01*
X67271104Y-113950666D01*
X67366342Y-113926857D01*
X67413961Y-113903047D01*
X67461580Y-113855428D01*
X67485390Y-113784000D01*
X67485390Y-113736380D01*
X67461580Y-113664952D01*
X67437771Y-113641142D01*
X67271104Y-113641142D01*
X67271104Y-113736380D01*
X67485390Y-113426857D02*
X66985390Y-113426857D01*
X67485390Y-113141142D01*
X66985390Y-113141142D01*
X67485390Y-112903047D02*
X66985390Y-112903047D01*
X66985390Y-112784000D01*
X67009200Y-112712571D01*
X67056819Y-112664952D01*
X67104438Y-112641142D01*
X67199676Y-112617333D01*
X67271104Y-112617333D01*
X67366342Y-112641142D01*
X67413961Y-112664952D01*
X67461580Y-112712571D01*
X67485390Y-112784000D01*
X67485390Y-112903047D01*
X67485390Y-111478914D02*
X66985390Y-111478914D01*
X67342533Y-111312247D01*
X66985390Y-111145580D01*
X67485390Y-111145580D01*
X66985390Y-110812247D02*
X66985390Y-110717009D01*
X67009200Y-110669390D01*
X67056819Y-110621771D01*
X67152057Y-110597961D01*
X67318723Y-110597961D01*
X67413961Y-110621771D01*
X67461580Y-110669390D01*
X67485390Y-110717009D01*
X67485390Y-110812247D01*
X67461580Y-110859866D01*
X67413961Y-110907485D01*
X67318723Y-110931295D01*
X67152057Y-110931295D01*
X67056819Y-110907485D01*
X67009200Y-110859866D01*
X66985390Y-110812247D01*
X67461580Y-110407485D02*
X67485390Y-110336057D01*
X67485390Y-110217009D01*
X67461580Y-110169390D01*
X67437771Y-110145580D01*
X67390152Y-110121771D01*
X67342533Y-110121771D01*
X67294914Y-110145580D01*
X67271104Y-110169390D01*
X67247295Y-110217009D01*
X67223485Y-110312247D01*
X67199676Y-110359866D01*
X67175866Y-110383676D01*
X67128247Y-110407485D01*
X67080628Y-110407485D01*
X67033009Y-110383676D01*
X67009200Y-110359866D01*
X66985390Y-110312247D01*
X66985390Y-110193200D01*
X67009200Y-110121771D01*
X67485390Y-109907485D02*
X66985390Y-109907485D01*
X66985390Y-108697638D02*
X67485390Y-108530971D01*
X66985390Y-108364304D01*
X67461580Y-107983352D02*
X67485390Y-108030971D01*
X67485390Y-108126209D01*
X67461580Y-108173828D01*
X67437771Y-108197638D01*
X67390152Y-108221447D01*
X67247295Y-108221447D01*
X67199676Y-108197638D01*
X67175866Y-108173828D01*
X67152057Y-108126209D01*
X67152057Y-108030971D01*
X67175866Y-107983352D01*
X67461580Y-107554780D02*
X67485390Y-107602400D01*
X67485390Y-107697638D01*
X67461580Y-107745257D01*
X67437771Y-107769066D01*
X67390152Y-107792876D01*
X67247295Y-107792876D01*
X67199676Y-107769066D01*
X67175866Y-107745257D01*
X67152057Y-107697638D01*
X67152057Y-107602400D01*
X67175866Y-107554780D01*
X68859447Y-104652000D02*
X68811828Y-104628190D01*
X68740400Y-104628190D01*
X68668971Y-104652000D01*
X68621352Y-104699619D01*
X68597542Y-104747238D01*
X68573733Y-104842476D01*
X68573733Y-104913904D01*
X68597542Y-105009142D01*
X68621352Y-105056761D01*
X68668971Y-105104380D01*
X68740400Y-105128190D01*
X68788019Y-105128190D01*
X68859447Y-105104380D01*
X68883257Y-105080571D01*
X68883257Y-104913904D01*
X68788019Y-104913904D01*
X69097542Y-105128190D02*
X69097542Y-104628190D01*
X69383257Y-105128190D01*
X69383257Y-104628190D01*
X69621352Y-105128190D02*
X69621352Y-104628190D01*
X69740400Y-104628190D01*
X69811828Y-104652000D01*
X69859447Y-104699619D01*
X69883257Y-104747238D01*
X69907066Y-104842476D01*
X69907066Y-104913904D01*
X69883257Y-105009142D01*
X69859447Y-105056761D01*
X69811828Y-105104380D01*
X69740400Y-105128190D01*
X69621352Y-105128190D01*
D11*
%TO.C,BT1-3.3V*%
X67631000Y-103946000D02*
X70291000Y-103946000D01*
X67631000Y-101346000D02*
X67631000Y-103946000D01*
X70291000Y-101346000D02*
X70291000Y-103946000D01*
X67631000Y-101346000D02*
X70291000Y-101346000D01*
X67631000Y-100076000D02*
X67631000Y-98746000D01*
X67631000Y-98746000D02*
X68961000Y-98746000D01*
%TO.C,C1*%
X84596248Y-99341000D02*
X85118752Y-99341000D01*
X84596248Y-100811000D02*
X85118752Y-100811000D01*
%TO.C,C2*%
X84701748Y-103732000D02*
X85224252Y-103732000D01*
X84701748Y-102262000D02*
X85224252Y-102262000D01*
%TO.C,C3*%
X99956252Y-110175000D02*
X99433748Y-110175000D01*
X99956252Y-108705000D02*
X99433748Y-108705000D01*
%TO.C,D1*%
X106664000Y-111943000D02*
X103804000Y-111943000D01*
X103804000Y-111943000D02*
X103804000Y-113863000D01*
X103804000Y-113863000D02*
X106664000Y-113863000D01*
%TO.C,R1*%
X100430064Y-113683000D02*
X99975936Y-113683000D01*
X100430064Y-112213000D02*
X99975936Y-112213000D01*
%TO.C,R2*%
X75030064Y-96039000D02*
X74575936Y-96039000D01*
X75030064Y-97509000D02*
X74575936Y-97509000D01*
D12*
%TO.C,U1*%
X89452000Y-100115000D02*
X89452000Y-100320000D01*
X94952000Y-100115000D02*
X94952000Y-100415000D01*
X94952000Y-105625000D02*
X94952000Y-105325000D01*
X89452000Y-105625000D02*
X89452000Y-105325000D01*
X89452000Y-100115000D02*
X94952000Y-100115000D01*
X89452000Y-105625000D02*
X94952000Y-105625000D01*
X89452000Y-100320000D02*
X87702000Y-100320000D01*
D11*
%TO.C,U2*%
X102901000Y-106080000D02*
X105661000Y-106080000D01*
X105661000Y-106080000D02*
X105661000Y-105335000D01*
X102901000Y-106080000D02*
X100141000Y-106080000D01*
X100141000Y-106080000D02*
X100141000Y-105335000D01*
X102901000Y-99660000D02*
X105661000Y-99660000D01*
X105661000Y-99660000D02*
X105661000Y-100405000D01*
X102901000Y-99660000D02*
X100141000Y-99660000D01*
X100141000Y-99660000D02*
X100141000Y-100405000D01*
X100141000Y-100405000D02*
X98451000Y-100405000D01*
D12*
%TO.C,U3*%
X89452000Y-107940000D02*
X87702000Y-107940000D01*
X89452000Y-113245000D02*
X94952000Y-113245000D01*
X89452000Y-107735000D02*
X94952000Y-107735000D01*
X89452000Y-113245000D02*
X89452000Y-112945000D01*
X94952000Y-113245000D02*
X94952000Y-112945000D01*
X94952000Y-107735000D02*
X94952000Y-108035000D01*
X89452000Y-107735000D02*
X89452000Y-107940000D01*
D13*
%TO.C,U4*%
X76987000Y-106128000D02*
X76887000Y-106128000D01*
X76887000Y-106128000D02*
X76537000Y-106478000D01*
X76537000Y-106478000D02*
X76537000Y-106578000D01*
X76537000Y-106578000D02*
X75237000Y-106578000D01*
X83737000Y-106128000D02*
X83287000Y-106128000D01*
X83737000Y-106128000D02*
X83737000Y-106578000D01*
X83737000Y-113328000D02*
X83737000Y-112878000D01*
X83737000Y-113328000D02*
X83287000Y-113328000D01*
X76537000Y-113328000D02*
X76987000Y-113328000D01*
X76537000Y-113328000D02*
X76537000Y-112878000D01*
D11*
%TO.C,Y1*%
X104251000Y-108270000D02*
X105351000Y-108270000D01*
X104251000Y-110170000D02*
X105351000Y-110170000D01*
X102101000Y-108320000D02*
X102101000Y-110120000D01*
%TO.C,Y2*%
X80297000Y-99165000D02*
X73047000Y-99165000D01*
X73047000Y-99165000D02*
X73047000Y-102765000D01*
X73047000Y-102765000D02*
X80297000Y-102765000D01*
%TO.C,J1*%
X81280000Y-97850000D02*
X81280000Y-95190000D01*
X81280000Y-97850000D02*
X88960000Y-97850000D01*
X88960000Y-97850000D02*
X88960000Y-95190000D01*
X81280000Y-95190000D02*
X88960000Y-95190000D01*
X78680000Y-95190000D02*
X80010000Y-95190000D01*
X78680000Y-96520000D02*
X78680000Y-95190000D01*
%TO.C,J2*%
X81788000Y-118424000D02*
X81788000Y-115764000D01*
X81788000Y-118424000D02*
X102168000Y-118424000D01*
X102168000Y-118424000D02*
X102168000Y-115764000D01*
X81788000Y-115764000D02*
X102168000Y-115764000D01*
X79188000Y-115764000D02*
X80518000Y-115764000D01*
X79188000Y-117094000D02*
X79188000Y-115764000D01*
%TO.C,J3*%
X91380000Y-96520000D02*
X91380000Y-95190000D01*
X91380000Y-95190000D02*
X92710000Y-95190000D01*
X93980000Y-95190000D02*
X101660000Y-95190000D01*
X101660000Y-97850000D02*
X101660000Y-95190000D01*
X93980000Y-97850000D02*
X101660000Y-97850000D01*
X93980000Y-97850000D02*
X93980000Y-95190000D01*
%TO.C,J4*%
X67631000Y-106757000D02*
X70231000Y-106757000D01*
X67631000Y-106757000D02*
X67631000Y-114497000D01*
X67631000Y-114497000D02*
X72831000Y-114497000D01*
X72831000Y-109357000D02*
X72831000Y-114497000D01*
X70231000Y-109357000D02*
X72831000Y-109357000D01*
X70231000Y-106757000D02*
X70231000Y-109357000D01*
X72831000Y-106757000D02*
X72831000Y-108087000D01*
X71501000Y-106757000D02*
X72831000Y-106757000D01*
%TO.C,BT1-3.3V*%
D10*
X67576095Y-97754285D02*
X67647523Y-97778095D01*
X67671333Y-97801904D01*
X67695142Y-97849523D01*
X67695142Y-97920952D01*
X67671333Y-97968571D01*
X67647523Y-97992380D01*
X67599904Y-98016190D01*
X67409428Y-98016190D01*
X67409428Y-97516190D01*
X67576095Y-97516190D01*
X67623714Y-97540000D01*
X67647523Y-97563809D01*
X67671333Y-97611428D01*
X67671333Y-97659047D01*
X67647523Y-97706666D01*
X67623714Y-97730476D01*
X67576095Y-97754285D01*
X67409428Y-97754285D01*
X67838000Y-97516190D02*
X68123714Y-97516190D01*
X67980857Y-98016190D02*
X67980857Y-97516190D01*
X68552285Y-98016190D02*
X68266571Y-98016190D01*
X68409428Y-98016190D02*
X68409428Y-97516190D01*
X68361809Y-97587619D01*
X68314190Y-97635238D01*
X68266571Y-97659047D01*
X68766571Y-97825714D02*
X69147523Y-97825714D01*
X69338000Y-97516190D02*
X69647523Y-97516190D01*
X69480857Y-97706666D01*
X69552285Y-97706666D01*
X69599904Y-97730476D01*
X69623714Y-97754285D01*
X69647523Y-97801904D01*
X69647523Y-97920952D01*
X69623714Y-97968571D01*
X69599904Y-97992380D01*
X69552285Y-98016190D01*
X69409428Y-98016190D01*
X69361809Y-97992380D01*
X69338000Y-97968571D01*
X69861809Y-97968571D02*
X69885619Y-97992380D01*
X69861809Y-98016190D01*
X69838000Y-97992380D01*
X69861809Y-97968571D01*
X69861809Y-98016190D01*
X70052285Y-97516190D02*
X70361809Y-97516190D01*
X70195142Y-97706666D01*
X70266571Y-97706666D01*
X70314190Y-97730476D01*
X70338000Y-97754285D01*
X70361809Y-97801904D01*
X70361809Y-97920952D01*
X70338000Y-97968571D01*
X70314190Y-97992380D01*
X70266571Y-98016190D01*
X70123714Y-98016190D01*
X70076095Y-97992380D01*
X70052285Y-97968571D01*
X70504666Y-97516190D02*
X70671333Y-98016190D01*
X70838000Y-97516190D01*
X71185885Y-103126171D02*
X71209695Y-103054742D01*
X71233504Y-103030933D01*
X71281123Y-103007123D01*
X71352552Y-103007123D01*
X71400171Y-103030933D01*
X71423980Y-103054742D01*
X71447790Y-103102361D01*
X71447790Y-103292838D01*
X70947790Y-103292838D01*
X70947790Y-103126171D01*
X70971600Y-103078552D01*
X70995409Y-103054742D01*
X71043028Y-103030933D01*
X71090647Y-103030933D01*
X71138266Y-103054742D01*
X71162076Y-103078552D01*
X71185885Y-103126171D01*
X71185885Y-103292838D01*
X71447790Y-102578552D02*
X71185885Y-102578552D01*
X71138266Y-102602361D01*
X71114457Y-102649980D01*
X71114457Y-102745219D01*
X71138266Y-102792838D01*
X71423980Y-102578552D02*
X71447790Y-102626171D01*
X71447790Y-102745219D01*
X71423980Y-102792838D01*
X71376361Y-102816647D01*
X71328742Y-102816647D01*
X71281123Y-102792838D01*
X71257314Y-102745219D01*
X71257314Y-102626171D01*
X71233504Y-102578552D01*
X71114457Y-102411885D02*
X71114457Y-102221409D01*
X70947790Y-102340457D02*
X71376361Y-102340457D01*
X71423980Y-102316647D01*
X71447790Y-102269028D01*
X71447790Y-102221409D01*
X71114457Y-102126171D02*
X71114457Y-101935695D01*
X70947790Y-102054742D02*
X71376361Y-102054742D01*
X71423980Y-102030933D01*
X71447790Y-101983314D01*
X71447790Y-101935695D01*
X71423980Y-101578552D02*
X71447790Y-101626171D01*
X71447790Y-101721409D01*
X71423980Y-101769028D01*
X71376361Y-101792838D01*
X71185885Y-101792838D01*
X71138266Y-101769028D01*
X71114457Y-101721409D01*
X71114457Y-101626171D01*
X71138266Y-101578552D01*
X71185885Y-101554742D01*
X71233504Y-101554742D01*
X71281123Y-101792838D01*
X71447790Y-101340457D02*
X71114457Y-101340457D01*
X71209695Y-101340457D02*
X71162076Y-101316647D01*
X71138266Y-101292838D01*
X71114457Y-101245219D01*
X71114457Y-101197600D01*
X71114457Y-101078552D02*
X71447790Y-100959504D01*
X71114457Y-100840457D02*
X71447790Y-100959504D01*
X71566838Y-101007123D01*
X71590647Y-101030933D01*
X71614457Y-101078552D01*
X70947790Y-100316647D02*
X70947790Y-100007123D01*
X71138266Y-100173790D01*
X71138266Y-100102361D01*
X71162076Y-100054742D01*
X71185885Y-100030933D01*
X71233504Y-100007123D01*
X71352552Y-100007123D01*
X71400171Y-100030933D01*
X71423980Y-100054742D01*
X71447790Y-100102361D01*
X71447790Y-100245219D01*
X71423980Y-100292838D01*
X71400171Y-100316647D01*
X70947790Y-99864266D02*
X71447790Y-99697600D01*
X70947790Y-99530933D01*
%TO.C,C1*%
X82804771Y-100159333D02*
X82828580Y-100183142D01*
X82852390Y-100254571D01*
X82852390Y-100302190D01*
X82828580Y-100373619D01*
X82780961Y-100421238D01*
X82733342Y-100445047D01*
X82638104Y-100468857D01*
X82566676Y-100468857D01*
X82471438Y-100445047D01*
X82423819Y-100421238D01*
X82376200Y-100373619D01*
X82352390Y-100302190D01*
X82352390Y-100254571D01*
X82376200Y-100183142D01*
X82400009Y-100159333D01*
X82852390Y-99683142D02*
X82852390Y-99968857D01*
X82852390Y-99826000D02*
X82352390Y-99826000D01*
X82423819Y-99873619D01*
X82471438Y-99921238D01*
X82495247Y-99968857D01*
%TO.C,C2*%
X82880971Y-103080333D02*
X82904780Y-103104142D01*
X82928590Y-103175571D01*
X82928590Y-103223190D01*
X82904780Y-103294619D01*
X82857161Y-103342238D01*
X82809542Y-103366047D01*
X82714304Y-103389857D01*
X82642876Y-103389857D01*
X82547638Y-103366047D01*
X82500019Y-103342238D01*
X82452400Y-103294619D01*
X82428590Y-103223190D01*
X82428590Y-103175571D01*
X82452400Y-103104142D01*
X82476209Y-103080333D01*
X82476209Y-102889857D02*
X82452400Y-102866047D01*
X82428590Y-102818428D01*
X82428590Y-102699380D01*
X82452400Y-102651761D01*
X82476209Y-102627952D01*
X82523828Y-102604142D01*
X82571447Y-102604142D01*
X82642876Y-102627952D01*
X82928590Y-102913666D01*
X82928590Y-102604142D01*
%TO.C,C3*%
X99637066Y-108357171D02*
X99613257Y-108380980D01*
X99541828Y-108404790D01*
X99494209Y-108404790D01*
X99422780Y-108380980D01*
X99375161Y-108333361D01*
X99351352Y-108285742D01*
X99327542Y-108190504D01*
X99327542Y-108119076D01*
X99351352Y-108023838D01*
X99375161Y-107976219D01*
X99422780Y-107928600D01*
X99494209Y-107904790D01*
X99541828Y-107904790D01*
X99613257Y-107928600D01*
X99637066Y-107952409D01*
X99803733Y-107904790D02*
X100113257Y-107904790D01*
X99946590Y-108095266D01*
X100018019Y-108095266D01*
X100065638Y-108119076D01*
X100089447Y-108142885D01*
X100113257Y-108190504D01*
X100113257Y-108309552D01*
X100089447Y-108357171D01*
X100065638Y-108380980D01*
X100018019Y-108404790D01*
X99875161Y-108404790D01*
X99827542Y-108380980D01*
X99803733Y-108357171D01*
%TO.C,D1*%
X103872552Y-111732190D02*
X103872552Y-111232190D01*
X103991600Y-111232190D01*
X104063028Y-111256000D01*
X104110647Y-111303619D01*
X104134457Y-111351238D01*
X104158266Y-111446476D01*
X104158266Y-111517904D01*
X104134457Y-111613142D01*
X104110647Y-111660761D01*
X104063028Y-111708380D01*
X103991600Y-111732190D01*
X103872552Y-111732190D01*
X104634457Y-111732190D02*
X104348742Y-111732190D01*
X104491600Y-111732190D02*
X104491600Y-111232190D01*
X104443980Y-111303619D01*
X104396361Y-111351238D01*
X104348742Y-111375047D01*
%TO.C,R1*%
X100119666Y-111986190D02*
X99953000Y-111748095D01*
X99833952Y-111986190D02*
X99833952Y-111486190D01*
X100024428Y-111486190D01*
X100072047Y-111510000D01*
X100095857Y-111533809D01*
X100119666Y-111581428D01*
X100119666Y-111652857D01*
X100095857Y-111700476D01*
X100072047Y-111724285D01*
X100024428Y-111748095D01*
X99833952Y-111748095D01*
X100595857Y-111986190D02*
X100310142Y-111986190D01*
X100453000Y-111986190D02*
X100453000Y-111486190D01*
X100405380Y-111557619D01*
X100357761Y-111605238D01*
X100310142Y-111629047D01*
%TO.C,R2*%
X74929666Y-95679390D02*
X74763000Y-95441295D01*
X74643952Y-95679390D02*
X74643952Y-95179390D01*
X74834428Y-95179390D01*
X74882047Y-95203200D01*
X74905857Y-95227009D01*
X74929666Y-95274628D01*
X74929666Y-95346057D01*
X74905857Y-95393676D01*
X74882047Y-95417485D01*
X74834428Y-95441295D01*
X74643952Y-95441295D01*
X75120142Y-95227009D02*
X75143952Y-95203200D01*
X75191571Y-95179390D01*
X75310619Y-95179390D01*
X75358238Y-95203200D01*
X75382047Y-95227009D01*
X75405857Y-95274628D01*
X75405857Y-95322247D01*
X75382047Y-95393676D01*
X75096333Y-95679390D01*
X75405857Y-95679390D01*
X74159371Y-98371790D02*
X73873657Y-98371790D01*
X74016514Y-98371790D02*
X74016514Y-97871790D01*
X73968895Y-97943219D01*
X73921276Y-97990838D01*
X73873657Y-98014647D01*
X74468895Y-97871790D02*
X74516514Y-97871790D01*
X74564133Y-97895600D01*
X74587942Y-97919409D01*
X74611752Y-97967028D01*
X74635561Y-98062266D01*
X74635561Y-98181314D01*
X74611752Y-98276552D01*
X74587942Y-98324171D01*
X74564133Y-98347980D01*
X74516514Y-98371790D01*
X74468895Y-98371790D01*
X74421276Y-98347980D01*
X74397466Y-98324171D01*
X74373657Y-98276552D01*
X74349847Y-98181314D01*
X74349847Y-98062266D01*
X74373657Y-97967028D01*
X74397466Y-97919409D01*
X74421276Y-97895600D01*
X74468895Y-97871790D01*
X74849847Y-98371790D02*
X74849847Y-97871790D01*
X75135561Y-98371790D02*
X74921276Y-98086076D01*
X75135561Y-97871790D02*
X74849847Y-98157504D01*
X75706990Y-98371790D02*
X75826038Y-98371790D01*
X75826038Y-98276552D01*
X75778419Y-98252742D01*
X75730800Y-98205123D01*
X75706990Y-98133695D01*
X75706990Y-98014647D01*
X75730800Y-97943219D01*
X75778419Y-97895600D01*
X75849847Y-97871790D01*
X75945085Y-97871790D01*
X76016514Y-97895600D01*
X76064133Y-97943219D01*
X76087942Y-98014647D01*
X76087942Y-98133695D01*
X76064133Y-98205123D01*
X76016514Y-98252742D01*
X75968895Y-98276552D01*
X75968895Y-98371790D01*
X76087942Y-98371790D01*
%TO.C,U1*%
X92125847Y-99370390D02*
X92125847Y-99775152D01*
X92149657Y-99822771D01*
X92173466Y-99846580D01*
X92221085Y-99870390D01*
X92316323Y-99870390D01*
X92363942Y-99846580D01*
X92387752Y-99822771D01*
X92411561Y-99775152D01*
X92411561Y-99370390D01*
X92911561Y-99870390D02*
X92625847Y-99870390D01*
X92768704Y-99870390D02*
X92768704Y-99370390D01*
X92721085Y-99441819D01*
X92673466Y-99489438D01*
X92625847Y-99513247D01*
%TO.C,U2*%
X102768447Y-98963990D02*
X102768447Y-99368752D01*
X102792257Y-99416371D01*
X102816066Y-99440180D01*
X102863685Y-99463990D01*
X102958923Y-99463990D01*
X103006542Y-99440180D01*
X103030352Y-99416371D01*
X103054161Y-99368752D01*
X103054161Y-98963990D01*
X103268447Y-99011609D02*
X103292257Y-98987800D01*
X103339876Y-98963990D01*
X103458923Y-98963990D01*
X103506542Y-98987800D01*
X103530352Y-99011609D01*
X103554161Y-99059228D01*
X103554161Y-99106847D01*
X103530352Y-99178276D01*
X103244638Y-99463990D01*
X103554161Y-99463990D01*
%TO.C,U3*%
X92024247Y-107015790D02*
X92024247Y-107420552D01*
X92048057Y-107468171D01*
X92071866Y-107491980D01*
X92119485Y-107515790D01*
X92214723Y-107515790D01*
X92262342Y-107491980D01*
X92286152Y-107468171D01*
X92309961Y-107420552D01*
X92309961Y-107015790D01*
X92500438Y-107015790D02*
X92809961Y-107015790D01*
X92643295Y-107206266D01*
X92714723Y-107206266D01*
X92762342Y-107230076D01*
X92786152Y-107253885D01*
X92809961Y-107301504D01*
X92809961Y-107420552D01*
X92786152Y-107468171D01*
X92762342Y-107491980D01*
X92714723Y-107515790D01*
X92571866Y-107515790D01*
X92524247Y-107491980D01*
X92500438Y-107468171D01*
%TO.C,U4*%
X79806847Y-103993190D02*
X79806847Y-104397952D01*
X79830657Y-104445571D01*
X79854466Y-104469380D01*
X79902085Y-104493190D01*
X79997323Y-104493190D01*
X80044942Y-104469380D01*
X80068752Y-104445571D01*
X80092561Y-104397952D01*
X80092561Y-103993190D01*
X80544942Y-104159857D02*
X80544942Y-104493190D01*
X80425895Y-103969380D02*
X80306847Y-104326523D01*
X80616371Y-104326523D01*
X73566685Y-115348533D02*
X73804780Y-115348533D01*
X73519066Y-115491390D02*
X73685733Y-114991390D01*
X73852400Y-115491390D01*
X73947638Y-114991390D02*
X74233352Y-114991390D01*
X74090495Y-115491390D02*
X74090495Y-114991390D01*
X74400019Y-115491390D02*
X74400019Y-114991390D01*
X74566685Y-115348533D01*
X74733352Y-114991390D01*
X74733352Y-115491390D01*
X74971447Y-115229485D02*
X75138114Y-115229485D01*
X75209542Y-115491390D02*
X74971447Y-115491390D01*
X74971447Y-114991390D01*
X75209542Y-114991390D01*
X75685733Y-115015200D02*
X75638114Y-114991390D01*
X75566685Y-114991390D01*
X75495257Y-115015200D01*
X75447638Y-115062819D01*
X75423828Y-115110438D01*
X75400019Y-115205676D01*
X75400019Y-115277104D01*
X75423828Y-115372342D01*
X75447638Y-115419961D01*
X75495257Y-115467580D01*
X75566685Y-115491390D01*
X75614304Y-115491390D01*
X75685733Y-115467580D01*
X75709542Y-115443771D01*
X75709542Y-115277104D01*
X75614304Y-115277104D01*
X75900019Y-115348533D02*
X76138114Y-115348533D01*
X75852400Y-115491390D02*
X76019066Y-114991390D01*
X76185733Y-115491390D01*
X76304780Y-114991390D02*
X76614304Y-114991390D01*
X76447638Y-115181866D01*
X76519066Y-115181866D01*
X76566685Y-115205676D01*
X76590495Y-115229485D01*
X76614304Y-115277104D01*
X76614304Y-115396152D01*
X76590495Y-115443771D01*
X76566685Y-115467580D01*
X76519066Y-115491390D01*
X76376209Y-115491390D01*
X76328590Y-115467580D01*
X76304780Y-115443771D01*
X76804780Y-115039009D02*
X76828590Y-115015200D01*
X76876209Y-114991390D01*
X76995257Y-114991390D01*
X77042876Y-115015200D01*
X77066685Y-115039009D01*
X77090495Y-115086628D01*
X77090495Y-115134247D01*
X77066685Y-115205676D01*
X76780971Y-115491390D01*
X77090495Y-115491390D01*
X77376209Y-115205676D02*
X77328590Y-115181866D01*
X77304780Y-115158057D01*
X77280971Y-115110438D01*
X77280971Y-115086628D01*
X77304780Y-115039009D01*
X77328590Y-115015200D01*
X77376209Y-114991390D01*
X77471447Y-114991390D01*
X77519066Y-115015200D01*
X77542876Y-115039009D01*
X77566685Y-115086628D01*
X77566685Y-115110438D01*
X77542876Y-115158057D01*
X77519066Y-115181866D01*
X77471447Y-115205676D01*
X77376209Y-115205676D01*
X77328590Y-115229485D01*
X77304780Y-115253295D01*
X77280971Y-115300914D01*
X77280971Y-115396152D01*
X77304780Y-115443771D01*
X77328590Y-115467580D01*
X77376209Y-115491390D01*
X77471447Y-115491390D01*
X77519066Y-115467580D01*
X77542876Y-115443771D01*
X77566685Y-115396152D01*
X77566685Y-115300914D01*
X77542876Y-115253295D01*
X77519066Y-115229485D01*
X77471447Y-115205676D01*
X77780971Y-115300914D02*
X78161923Y-115300914D01*
X78376209Y-115348533D02*
X78614304Y-115348533D01*
X78328590Y-115491390D02*
X78495257Y-114991390D01*
X78661923Y-115491390D01*
X78828590Y-114991390D02*
X78828590Y-115396152D01*
X78852400Y-115443771D01*
X78876209Y-115467580D01*
X78923828Y-115491390D01*
X79019066Y-115491390D01*
X79066685Y-115467580D01*
X79090495Y-115443771D01*
X79114304Y-115396152D01*
X79114304Y-114991390D01*
%TO.C,Y1*%
X104511504Y-107785695D02*
X104511504Y-108023790D01*
X104344838Y-107523790D02*
X104511504Y-107785695D01*
X104678171Y-107523790D01*
X105106742Y-108023790D02*
X104821028Y-108023790D01*
X104963885Y-108023790D02*
X104963885Y-107523790D01*
X104916266Y-107595219D01*
X104868647Y-107642838D01*
X104821028Y-107666647D01*
%TO.C,Y2*%
X77231904Y-98641695D02*
X77231904Y-98879790D01*
X77065238Y-98379790D02*
X77231904Y-98641695D01*
X77398571Y-98379790D01*
X77541428Y-98427409D02*
X77565238Y-98403600D01*
X77612857Y-98379790D01*
X77731904Y-98379790D01*
X77779523Y-98403600D01*
X77803333Y-98427409D01*
X77827142Y-98475028D01*
X77827142Y-98522647D01*
X77803333Y-98594076D01*
X77517619Y-98879790D01*
X77827142Y-98879790D01*
X75212866Y-103451790D02*
X74927152Y-103451790D01*
X75070009Y-103451790D02*
X75070009Y-102951790D01*
X75022390Y-103023219D01*
X74974771Y-103070838D01*
X74927152Y-103094647D01*
X75641438Y-102951790D02*
X75546200Y-102951790D01*
X75498580Y-102975600D01*
X75474771Y-102999409D01*
X75427152Y-103070838D01*
X75403342Y-103166076D01*
X75403342Y-103356552D01*
X75427152Y-103404171D01*
X75450961Y-103427980D01*
X75498580Y-103451790D01*
X75593819Y-103451790D01*
X75641438Y-103427980D01*
X75665247Y-103404171D01*
X75689057Y-103356552D01*
X75689057Y-103237504D01*
X75665247Y-103189885D01*
X75641438Y-103166076D01*
X75593819Y-103142266D01*
X75498580Y-103142266D01*
X75450961Y-103166076D01*
X75427152Y-103189885D01*
X75403342Y-103237504D01*
X75903342Y-103451790D02*
X75903342Y-102951790D01*
X76070009Y-103308933D01*
X76236676Y-102951790D01*
X76236676Y-103451790D01*
X76474771Y-103451790D02*
X76474771Y-102951790D01*
X76474771Y-103189885D02*
X76760485Y-103189885D01*
X76760485Y-103451790D02*
X76760485Y-102951790D01*
X76950961Y-103118457D02*
X77212866Y-103118457D01*
X76950961Y-103451790D01*
X77212866Y-103451790D01*
X78070009Y-103404171D02*
X78046200Y-103427980D01*
X77974771Y-103451790D01*
X77927152Y-103451790D01*
X77855723Y-103427980D01*
X77808104Y-103380361D01*
X77784295Y-103332742D01*
X77760485Y-103237504D01*
X77760485Y-103166076D01*
X77784295Y-103070838D01*
X77808104Y-103023219D01*
X77855723Y-102975600D01*
X77927152Y-102951790D01*
X77974771Y-102951790D01*
X78046200Y-102975600D01*
X78070009Y-102999409D01*
X78284295Y-103451790D02*
X78284295Y-103118457D01*
X78284295Y-103213695D02*
X78308104Y-103166076D01*
X78331914Y-103142266D01*
X78379533Y-103118457D01*
X78427152Y-103118457D01*
X78546200Y-103118457D02*
X78665247Y-103451790D01*
X78784295Y-103118457D02*
X78665247Y-103451790D01*
X78617628Y-103570838D01*
X78593819Y-103594647D01*
X78546200Y-103618457D01*
X78950961Y-103427980D02*
X78998580Y-103451790D01*
X79093819Y-103451790D01*
X79141438Y-103427980D01*
X79165247Y-103380361D01*
X79165247Y-103356552D01*
X79141438Y-103308933D01*
X79093819Y-103285123D01*
X79022390Y-103285123D01*
X78974771Y-103261314D01*
X78950961Y-103213695D01*
X78950961Y-103189885D01*
X78974771Y-103142266D01*
X79022390Y-103118457D01*
X79093819Y-103118457D01*
X79141438Y-103142266D01*
X79308104Y-103118457D02*
X79498580Y-103118457D01*
X79379533Y-102951790D02*
X79379533Y-103380361D01*
X79403342Y-103427980D01*
X79450961Y-103451790D01*
X79498580Y-103451790D01*
X79879533Y-103451790D02*
X79879533Y-103189885D01*
X79855723Y-103142266D01*
X79808104Y-103118457D01*
X79712866Y-103118457D01*
X79665247Y-103142266D01*
X79879533Y-103427980D02*
X79831914Y-103451790D01*
X79712866Y-103451790D01*
X79665247Y-103427980D01*
X79641438Y-103380361D01*
X79641438Y-103332742D01*
X79665247Y-103285123D01*
X79712866Y-103261314D01*
X79831914Y-103261314D01*
X79879533Y-103237504D01*
X80189057Y-103451790D02*
X80141438Y-103427980D01*
X80117628Y-103380361D01*
X80117628Y-102951790D01*
%TO.C,J1*%
X77526390Y-96585066D02*
X77883533Y-96585066D01*
X77954961Y-96608876D01*
X78002580Y-96656495D01*
X78026390Y-96727923D01*
X78026390Y-96775542D01*
X78026390Y-96085066D02*
X78026390Y-96370780D01*
X78026390Y-96227923D02*
X77526390Y-96227923D01*
X77597819Y-96275542D01*
X77645438Y-96323161D01*
X77669247Y-96370780D01*
%TO.C,J2*%
X77856590Y-117133666D02*
X78213733Y-117133666D01*
X78285161Y-117157476D01*
X78332780Y-117205095D01*
X78356590Y-117276523D01*
X78356590Y-117324142D01*
X77904209Y-116919380D02*
X77880400Y-116895571D01*
X77856590Y-116847952D01*
X77856590Y-116728904D01*
X77880400Y-116681285D01*
X77904209Y-116657476D01*
X77951828Y-116633666D01*
X77999447Y-116633666D01*
X78070876Y-116657476D01*
X78356590Y-116943190D01*
X78356590Y-116633666D01*
%TO.C,J3*%
X90632790Y-96686666D02*
X90989933Y-96686666D01*
X91061361Y-96710476D01*
X91108980Y-96758095D01*
X91132790Y-96829523D01*
X91132790Y-96877142D01*
X90632790Y-96496190D02*
X90632790Y-96186666D01*
X90823266Y-96353333D01*
X90823266Y-96281904D01*
X90847076Y-96234285D01*
X90870885Y-96210476D01*
X90918504Y-96186666D01*
X91037552Y-96186666D01*
X91085171Y-96210476D01*
X91108980Y-96234285D01*
X91132790Y-96281904D01*
X91132790Y-96424761D01*
X91108980Y-96472380D01*
X91085171Y-96496190D01*
%TO.C,J4*%
X70064333Y-105517190D02*
X70064333Y-105874333D01*
X70040523Y-105945761D01*
X69992904Y-105993380D01*
X69921476Y-106017190D01*
X69873857Y-106017190D01*
X70516714Y-105683857D02*
X70516714Y-106017190D01*
X70397666Y-105493380D02*
X70278619Y-105850523D01*
X70588142Y-105850523D01*
%TD*%
M02*
